<?xml version="1.0" encoding="utf-8"?>
<!-- Generator: Adobe Illustrator 21.1.0, SVG Export Plug-In . SVG Version: 6.00 Build 0)  -->
<svg version="1.1" id="Layer_1" xmlns="http://www.w3.org/2000/svg" xmlns:xlink="http://www.w3.org/1999/xlink" x="0px" y="0px"
	 viewBox="0 0 38 38.1" style="enable-background:new 0 0 38 38.1;" xml:space="preserve">
<style type="text/css">
	.st0{fill:#7DA6AC;}
	.st1{fill:#5C9E82;}
	.st2{fill:#FFFFFF;}
</style>
<g>
	<path class="st0" d="M37.8,19.4c0,7.6-4.8,14-11.6,16.4c0,0,0,0,0,0c-1.8,0.6-3.8,1-5.8,1C10.8,36.8,3,29,3,19.4
		c0-1.9,0.3-3.7,0.9-5.5c1.5-4.6,4.9-8.4,9.3-10.4c1.5-0.7,3-1.1,4.7-1.4C18.7,2,19.5,2,20.4,2c0.5,0,0.9,0,1.4,0.1
		c2.6,0.2,5.1,1,7.3,2.3C34.3,7.3,37.8,12.9,37.8,19.4z"/>
	<path class="st1" d="M19.6,31.7c-0.2,0.5-1.2,0.9-1.3,1.1c-0.2,0.3,0.2,0.8,0,1.1c-0.2,0.3-0.2,0.6-0.3,1c0,0.4-0.3,0.6,0,1
		c-1.9-0.3-3.5-3.1-3.8-3.9c-0.2-0.7-0.8-1.4-2.3-2.6c-1.5-1.1-1.9-3-1.7-4.2c-0.8-0.2-1.3-0.5-2.1-1.7c-0.8-1.2-2-0.9-2.6-1.5
		c-0.6-0.5-0.7-1-1.4-3.7c-0.3-1.1-0.3-2.8-0.2-4.4c1.5-4.6,4.9-8.4,9.3-10.4c0.6,0,1.1,0,1.3,0c0.4,0.1,1-0.4,1.6,0
		c0.5,0.4-0.2,1.3-0.2,1.3l0.5,0.3l-0.6,0.4l-0.4-0.2l-0.3,1c0,0,0,0.4-0.3,0.5c-0.3,0.1-0.7-0.3-0.8-0.7c0-0.4,1.1-1,0.5-1.2
		c-0.5-0.2-1.6,0.6-1.5,0.9c0,0.3-0.4,0.6-0.7,0.6c-0.3,0-0.4-0.6-0.4-0.6S9.8,7.5,9.6,8.3c-0.2,0.8,1.1,1,1.1,1s-0.5,0.9-0.1,1.1
		c0.4,0.2,1.9-3.6,2.3-3.7c0.4,0,0.9,0.3,0.9,0.6c-0.2,0.7,0.4,1.2,0.9,0.4c-0.1,1.5,1,1.6,1,1.6l-0.2,1.6l0.6,0.3L15.9,12
		c-0.1-0.3-0.4-0.6-1.1-0.6c-0.3-1.1-1.4-0.6-1.2-0.2c0.2,0.4-0.2,0.5-0.2,0.5l0.5,1L13,13.4c0,0-0.1-0.2,0-0.6
		c-0.8,0.3-0.8,0.8-1.1,1.2c-0.3,0.4-0.3,0-0.9,0.5c-0.6,0.5-0.1,1.5-0.7,1.8c-0.6,0.3-0.8,0.5-1.1,1.5c-0.3,1,0.4,1.1-0.2,1.9
		c-1.1-1.8-1.6-1.5-1.9-1c-1.7-1-1.7,2.3-0.7,3c0,0,0.7-1.2,1.1-0.9c0.4,0.4-0.2,1.3,0,1.6c0.2,0.3,0.5-0.3,1,0.3
		c0.5,0.5,0.2,1,0.6,1.5c0.4,0.5,1.2,0.4,1.2,0.4c0.1-0.7,0.9-1.1,0.9-1.1l0.1,0.4l0.8-0.2c0.2,0.5,1,0.9,0.9,0.5
		c0-0.4,0.7-0.4,0.9,0.2c0.2,0.6,1.3,1.5,2.5,1.2c0.3,1.5,1.7,2,2.3,2.2c0.3-0.2,1.3,0.1,1.5,1c0.2,0.8-0.4,1.1-0.6,1.7
		C19.4,30.8,19.8,31.2,19.6,31.7z"/>
	<path class="st1" d="M21.9,3.7c0.3,0.3,0.4,0.8,0.1,0.8s-0.6-0.2-1.9,0.7c-1.3,0.9-0.9,2.1-1.5,2c-0.6-0.1-0.7-0.6-1-1.3
		c-0.3-0.8,0.3-1.1,0.2-1.5c-0.1-0.4,0.4-1.3,0.4-1.3c-0.4-0.2-0.4-0.6-0.3-1C18.7,2,19.5,2,20.4,2c0.5,0,0.9,0,1.4,0.1l0.5,1
		C22.3,3,21.6,3.4,21.9,3.7z"/>
	<path class="st1" d="M23,5.4c0.3-0.1,1-0.1,1,0.4s-0.7,0.5-0.7,0.5s-0.8-0.2-1-0.5S22.7,5.2,23,5.4z"/>
	<path class="st1" d="M11.9,22.2v-0.5c0,0-0.7,0.2-1-0.2s-1.7-1.7-2.5-0.7c0.8-0.2,2.6,0.6,2.3,1.4H11.9z"/>
	<path class="st1" d="M37.8,19.4c0,7.6-4.8,14-11.6,16.4c0.2-1.3,0.3-1.2,1-1.8c0.8-0.6,1.3-1.9,1.6-2.5c0.3-0.7,1-0.9,1.5-1.7
		c0.4-0.8-0.1-1.3,0-2.1c0.1-0.9,0.4-1.1-0.1-1.8c-0.5-0.7-1,0-1.4,0c-0.4,0-0.9-0.3-1.9,0.3c-0.7-0.7-1.7-3.4-1.1-4.3
		c-0.6-1.7,0.1-3,0.9-3.2c0.7-0.2,0.5-1.1,0.5-1.4c0.1-0.4,0.3-1.3,2.1-1.5c1.8-0.2,2-0.5,2.4-0.2c0.4,0.3-0.1,0.9,0.1,1.1
		c0.3,0.1,0.5-0.1,0.8,0.1c0.3,0.2,0.3,0.9,0.7,0.9c0.4,0,0.3-0.5,0.6-0.6c0.3-0.1,1.8,1.1,1.9-0.3c0.1-1.4-0.6-0.9-1-0.9
		c-0.3,0-1.3-0.7-1.5-1.1c-0.1-0.5-0.4-1.3-1.5-1.9c0.3,0.4,0.9,1.3,0.9,1.3l-0.3,1.3L32,15c0,0,0.7-0.5,0.5-0.9
		c-0.2-0.4-0.8-0.2-1-0.6c-0.2-0.4-0.6-0.8-0.6-0.8s-1.7,3.1-3,2.8c-1.3-0.3-1.3-2.3,0.1-2.4c1.4-0.1,0.2-1.5-0.1-1.7
		c-0.3-0.2,0-0.6,0.6-0.6c0.6,0,0.2-0.8,0.7-1.1c0.5-0.3,1.7-0.3,2-1c0.3-0.7,0.2-1.4,0-1.4c-0.2,0-0.8,0-0.8,0l-1.2-1.6
		c0,0-0.1,0.7,0.1,1c0.2,0.3,1.1,0.9,0.9,1.4c-0.2,0.5-0.1,1.1-0.4,1.2C29.5,9.3,29,8.7,29,8.3c0.1-0.4-0.8-0.4-1.1-0.8
		c-0.3-0.3-0.3-1.2-0.3-1.8s-0.5-1.2-0.2-1.4c0.3-0.2,0.5,0.5,0.8,0.5c0.2,0,0.6-0.3,0.8-0.5C34.3,7.3,37.8,12.9,37.8,19.4z"/>
	<path class="st1" d="M27.6,10.6c0.1,0.1,0.7,0,0.8-0.1s0.1-0.7-0.3-1c-0.4-0.3-0.9-0.9-0.9-0.9l0.1-0.5L27,8.3l-0.3-0.5l-0.1,0.9
		l-0.3-0.9v1.1c0,0,0.6-0.1,0.7,0.2c0.1,0.3,0.3,0.6,0.3,0.6S27,10.3,27.6,10.6z"/>
	<ellipse transform="matrix(0.9193 -0.3936 0.3936 0.9193 -1.6225 11.2297)" class="st1" cx="26.6" cy="9.6" rx="0.3" ry="0.5"/>
	<circle class="st1" cx="9.9" cy="22.1" r="0.2"/>
	<ellipse transform="matrix(0.866 -0.5 0.5 0.866 -9.4398 9.1824)" class="st1" cx="12.4" cy="22.2" rx="0.2" ry="0.3"/>
	<polygon class="st2" points="4.6,24.3 6.5,23.1 8.9,23.1 10.4,24.9 11.9,25.8 11.9,27.1 9.4,28.6 6.6,28.6 4.4,28 0.2,27.2 1.3,26 
		1.3,24.6 2.2,23.9 3.4,23.9 	"/>
	<polygon class="st2" points="28.7,2.3 30.3,1.4 32.1,1.4 33.1,2.7 34.5,3.8 34.5,4.9 32.4,6.1 29.3,6.1 28,5.4 24.8,5.1 25.6,4 
		25.6,2.6 26.4,2.2 27.3,2.2 	"/>
	<polygon class="st2" points="26.1,7.2 27.1,6.6 28.8,6.9 29.2,8.2 30.1,9.1 28.1,10.3 25.1,9.2 	"/>
</g>
</svg>
