<?xml version="1.0" encoding="utf-8"?>
<!-- Generator: Adobe Illustrator 21.1.0, SVG Export Plug-In . SVG Version: 6.00 Build 0)  -->
<svg version="1.1" id="Layer_1" xmlns="http://www.w3.org/2000/svg" xmlns:xlink="http://www.w3.org/1999/xlink" x="0px" y="0px"
	 viewBox="0 0 38 38.1" style="enable-background:new 0 0 38 38.1;" xml:space="preserve">
<style type="text/css">
	.st0{fill:none;stroke:#FFFFFF;stroke-miterlimit:10;}
	.st1{fill:#FFFFFF;}
</style>
<path class="st0" d="M37,19.1c0,1.2-0.1,2.4-0.4,3.6c-0.2,1.1-0.5,2.1-0.9,3.1C33,32.4,26.5,37.1,19,37.1c-6.6,0-12.3-3.5-15.5-8.8
	c-0.1-0.3-0.3-0.5-0.4-0.8C1.7,25,1,22.2,1,19.1c0-1.7,0.2-3.3,0.7-4.9c0.2-0.8,0.5-1.5,0.8-2.2C5.2,5.6,11.5,1.1,19,1.1
	c0.3,0,0.6,0,0.8,0c0.7,0,1.3,0.1,2,0.2C30.4,2.7,37,10.1,37,19.1z"/>
<g>
	<path class="st1" d="M23.2,22L23.2,22c1.8,0,2.8,1.5,3.2,2.4c-0.2,0.8-0.5,1.5-0.8,1.9c-0.1,0.1-0.1,0.1-0.2,0.1
		c-0.2,0-0.4-0.1-0.7-0.1c-0.4-0.1-0.8-0.2-1.3-0.2c-0.6,0-1.2,0.2-1.6,0.5c-1.1,0.9-1.2,2.5-1.3,3.8c0,0.4-0.1,1.1-0.1,1.3
		c-0.1,0.2-0.3,0.3-0.4,0.3c-0.1,0-0.4,0-0.8-0.4c-0.1,0-0.6-0.5-0.9-2.7c0.3-3.8,1.6-6,3.9-6.7C22.5,22.1,22.8,22,23.2,22 M23.2,21
		c-0.4,0-0.9,0.1-1.4,0.2c-3.1,0.9-4.3,4-4.6,7.7c0.2,1.2,0.5,2.9,1.3,3.4c0.5,0.4,1,0.6,1.4,0.6c0.1,0,0.1,0,0.2,0
		c0.4-0.1,0.7-0.3,1-0.7c0.2-0.3,0.3-1,0.3-1.8c0.1-1.1,0.1-2.4,0.9-3c0.3-0.2,0.7-0.3,1-0.3c0.4,0,0.7,0.1,1,0.2
		c0.3,0.1,0.7,0.2,0.9,0.2c0.3,0,0.6-0.1,0.9-0.4c0.7-0.7,1-1.9,1.2-2.7C27,22.8,25.5,21,23.2,21L23.2,21z"/>
</g>
<path class="st0" d="M4.3,29.1c2.9-1.1,4.1-1.8,4.9-2.3c0.4-0.2,0.7-0.4,1-0.6c0.5-0.3,1.3-0.1,1.4,0.6c0.3,1.4-0.8,2.7,0.7,2.5
	c1.2-0.2,0.6-2.3,0.8-3c0.1-0.5,1.3-0.7,1.8-0.7c0.3,0,0.7-0.3,1-1.1c0.8-0.2,0.8,0.6,0.8,0.6s-1.8,3.4-0.4,6.3
	c0.1,0.3,0.3,0.6,0.4,0.9c0.4,1.2,1.6,2.5,2.5,3c0.6,0.3,1.1,0.5,1.6,0.5c0.2,0,0.3,0,0.5-0.1c0.5-0.1,0.9-0.5,1.2-1.1
	c0.2-0.5,0.2-1.2,0.1-2.1c-0.1-1.1-0.2-2.3,0.4-2.9c0.5-0.5,1.1-0.4,1.7-0.3c0.8,0.1,1.6,0.2,2.2-0.6c0.3-0.3,0.5-0.8,0.6-1.2
	c0.2-0.6,0.8-1.1,1.5-1.1c1.6-0.1,4.3-0.9,6.3,0.2"/>
<path class="st0" d="M1.6,14.2c3.6,5.6,10.5,5,9.2,8.3c-0.1,0.3-0.3,0.7-0.6,1c-0.6-1.8-2.1-2.2-3.3-2.2c-0.9,0-1.2,0.4-1.2,0.7
	c-0.1,0.8,0.4,1.1,0.8,1.5c0.3,0.2,0.7,0.5,0.8,0.8c0.2,0.5,0.2,1,0.1,1.3c-1.4,0.8-3.1,1.5-4.4,2"/>
<g>
	<path class="st1" d="M10.6,8.2c0.2,0,0.4,0,0.6,0.1c1.5,0.6,2.7,2.5,2.6,3.1c0,0.9,0.3,1.5,0.6,2c0.3,0.5,0.6,1,0.8,1.9
		c-0.4,1.1-2.3,1.3-3.4,1.3c-0.8,0-1.4-0.1-1.5-0.1c-1.1-0.2-2-0.8-3.1-1.9c-0.3-1,0.1-1.2,0.4-1.3c2.3-1.1,2.3-3.5,2.3-4.4
		c0-0.1,0.1-0.3,0.3-0.5C10.2,8.2,10.4,8.2,10.6,8.2 M10.6,7.2c-0.4,0-0.7,0.1-1,0.3C9,7.8,8.8,8.4,8.8,8.8c0,0.9,0,2.7-1.7,3.5
		c-1,0.5-1.3,1.4-0.8,2.8l0,0c1.1,1.1,2.3,2,3.8,2.3c0.4,0.1,1,0.1,1.7,0.1c1.8,0,4-0.4,4.4-2.2c-0.2-1.2-0.6-1.9-0.9-2.4
		c-0.3-0.5-0.5-0.9-0.5-1.5c0.1-1.1-1.4-3.4-3.3-4C11.2,7.2,10.8,7.2,10.6,7.2L10.6,7.2z"/>
</g>
<path class="st0" d="M19.8,1.1c4,4.9,7.1,14.6,5.5,15.6c-1.9,1.2-3.6-0.7-4.6-1.6c-0.8-0.9-2.3-1-3.1,0.1c-0.3-1.2-0.7-1.9-1.1-2.5
	c-0.3-0.6-0.6-1-0.5-1.6c0.1-1.5-1.8-4.5-4.3-5.4c-1.4-0.5-2.3-0.2-2.8,0.2c-0.7,0.5-1.1,1.4-1.1,2c0,1.1,0,3.1-1.8,4
	c-1.2,0.6-1.7,1.6-1.5,3.1C3.8,14,3.1,13,2.4,12"/>
<path class="st0" d="M36.6,22.7c-0.8-0.2-1.7-0.3-2.5-0.3c0.2-0.4,0.3-0.8,0.4-1.2c0.3-1.2,0.4-2.9-0.7-4.7l-0.3-0.5l-0.1,0.6
	c-0.2,2.5-1.8,3.9-2.8,4.6c-0.2-0.6-0.2-1.3-0.1-1.7c0.3-1.1-0.3-2.2-0.8-2.3c0.3,0.8,0,2-0.8,2.8c-1.8,0.2-3.3-2.3-2.3-2.7
	c0.9-0.5,1.3-0.5,0.5-4.4c-0.7-3.3-3.4-8.3-5.3-11.4"/>
<g>
	<path class="st1" d="M19.4,17.8c0.1,0,0.4,0,1.3,0.9c-0.2,0-0.3,0-0.5,0.1c-0.8,0.1-1.3,0.6-1.6,1.1c-0.1-0.6,0-1.2,0.1-1.4
		C19.2,17.9,19.4,17.8,19.4,17.8L19.4,17.8 M19.4,16.8c-0.5,0-0.9,0.4-1.4,1.1c-0.6,0.9-0.2,3.7,0.5,3.7c0,0,0,0,0,0
		c0.7-0.1,0.9-1.6,1.9-1.8c1.1-0.2,3,0.1,1.2-1.6C20.6,17.2,19.9,16.8,19.4,16.8L19.4,16.8z"/>
</g>
</svg>
