<?xml version="1.0" encoding="utf-8"?>
<!-- Generator: Adobe Illustrator 21.1.0, SVG Export Plug-In . SVG Version: 6.00 Build 0)  -->
<svg version="1.1" id="Layer_1" xmlns="http://www.w3.org/2000/svg" xmlns:xlink="http://www.w3.org/1999/xlink" x="0px" y="0px"
	 viewBox="0 0 72.7 72.9" style="enable-background:new 0 0 72.7 72.9;" xml:space="preserve">
<style type="text/css">
	.st0{fill:none;stroke:#FFFFFF;stroke-miterlimit:10;}
</style>
<g>
	<circle class="st0" cx="36.4" cy="36.4" r="35.6"/>
	<path class="st0" d="M22.7,3.5c-1.1,2.2-2.9,6.4,0.8,8.2s9.4-2.2,9.1-2.9c-0.3-0.7-2.6-0.1-3.1,0.4C28,7.8,30.6,6,32.6,6.4
		c2,0.5,4.2,3.1,0,5.7s-8.5,2.5-10.7,1.3s-3.1-6.2-2.3-8.5"/>
	<path class="st0" d="M10.8,11.6c0.4,4.1,2.5,6.7,10,6.4s14.8-5.3,17.3-6.2s4.6-1.8,5.4-2.7c0.8-0.9,2.6-4.3,4.2-4.3
		c0.5,0.6-6.9,11-14.4,13.4s-10.2,5.3-17.5,3.1s-7.4-7-7.4-7"/>
	<path class="st0" d="M4.5,42c-1.9-5-2-17,1.4-19.1s5.6,0.4,4.3,2c-1.3,1.7-0.8,2.9,0.6,3.7c0.8,0.4,1.5,1.6,1.9,2.6
		c0.2,0.4,0.8,0.4,1-0.1c0.6-1.9,1.9-4.6,4.9-4.2c1.4,0.5,1.4,0.7,1.4,1.3s-3.1-0.9-3.1,1S16.3,34,17.5,34s0.6-1,1.5-0.9
		c0.9,0.2,0.7,1.9,1.2,1.9c0.6,0,1.4-0.5,1.1-2.1c-0.3-1.6-0.8-3.1,1.2-5.5s6.7-5,8.7-6.2c1.9-1.2,6.7-4.7,10.7-4.4s6.6,7.9,6.5,9.4
		s-1.4,4.5,0,5c1.4,0.6,2,0.7,1.4,2.5c-0.7,1.8-1.7,4.1-3.8,3.9c-2.1-0.2-0.1-2.5-0.4-6.7c-0.3-4.2-0.4-8.2-2.5-10.1
		s-4.9-2.3-4.9,0.9c0,6.1-4.4,6.3-8.1,8.4s-2.4,4.5-1.5,4.5s0.6-1.5,2.3-2.4c1.7-0.9,5.2-0.5,4,3.4s-4.1,4.1-7,6.6
		c-2.9,2.6-6,3.9-8,3.1s0.8-5.2-6.2-4.5c-1.4-0.5-1.4-2.4-1.2-3.9c0.1-1-0.3-2-1.1-2.6c-1-0.8-1.8-2-2.5-3.4c-1-2-0.3-5.1-1.9-5.4
		s-2,7.4-1.5,10.1S5.3,41,4.5,42z"/>
	<path class="st0" d="M7.8,57.7c-0.2-3.9,0.2-5.3,0.8-6.2c-1-0.2-0.4-1.6-0.1-2.4s-1.5-3.7,0-6.5c-1.6-0.1-1.6-4.8,4.1-3.2"/>
	<path class="st0" d="M15.6,40.8C17.1,43,20,53.5,20.1,57c0.1,0.8,0,1,0.2,0.9c0.2,0,0.4-1.2,1.1-1.1c0.7,0.1-0.7,2.5,1.2,2.8
		c1.9,0.3,2.9-1.8,7-2.2s0.5-1.6,0.5-2.3s3.4-0.5,3.5-1.3c0-0.9-0.8-2.3,1.7-2.5s11.7,0.2,12.5-0.6c0.7-0.8,2.1-3.2,1.4-5.8
		c-2,0.3-2-2.2,0.9-2.6c2.8-0.4,2.1-5,1.8-7s0.2-5.4,2.5-7.1s3.5-7.1,3.5-7.1"/>
	<path class="st0" d="M55.9,14.6c1-0.9,5.8,1.1,7,5.6c1.2,4.6-1.3,5.2-2.7,3.9S54.4,16.6,55.9,14.6z"/>
	<path class="st0" d="M61.2,17.1c1.2-1,5.4,0.3,1.9,4"/>
	<path class="st0" d="M59.8,23.9c-1.3,1.7-1.3,4,1.3,4.7s3.2,1.5,3.6,1.6s1.3-0.4,2,2.1"/>
	<path class="st0" d="M71.8,32.5c-1.1-0.9-4.2-3.9-6.3,2.2c-2.1,6-2.6,11,2.6,17.9"/>
	<path class="st0" d="M68.6,21.3c-1.1,1.8-1.9,5.5,0,7.5c1.3,1.4,1.2,2.4,1.2,2.4"/>
	<path class="st0" d="M64.1,43.5c0,0-2.3,0-1.6,1.4c0.8,1.4,0.1,2.8,0.4,3.9c0.3,1.1,1.5,3.3,0.6,4s-1.7,1.5-3,0.5
		c-1.2-0.9-0.2-3.6-1.9-5c-1.6-1.5-2.6-0.9-3.4-1.5s-2.2-1.3-2.9-0.6s0.2,1.5-0.3,2.8s1,1.4,1.7,1.3s2.1,1.4,2.5,2.3
		s1.8,6.8,5.6,8.9"/>
</g>
</svg>
