<?xml version="1.0" encoding="utf-8"?>
<!-- Generator: Adobe Illustrator 21.1.0, SVG Export Plug-In . SVG Version: 6.00 Build 0)  -->
<svg version="1.1" id="Layer_1" xmlns="http://www.w3.org/2000/svg" xmlns:xlink="http://www.w3.org/1999/xlink" x="0px" y="0px"
	 viewBox="0 0 38 38.1" style="enable-background:new 0 0 38 38.1;" xml:space="preserve">
<style type="text/css">
	.st0{fill:#DBBBA5;}
	.st1{fill:#92725D;}
	.st2{fill:#AD9585;}
	.st3{fill:#624735;}
	.st4{fill:#926A4F;}
	.st5{fill:#CFA487;}
</style>
<g>
	<path class="st0" d="M37.4,19.1c0,0.3,0,0.6,0,0.9c0,0.7-0.1,1.3-0.2,2c-0.2,1.1-0.4,2.2-0.8,3.3c-0.2,0.6-0.5,1.3-0.8,1.9
		c-0.3,0.6-0.6,1.1-0.9,1.6c-0.5,0.8-1,1.5-1.6,2.2c-1,1.2-2.2,2.3-3.5,3.2c-3,2.1-6.6,3.4-10.6,3.4c-0.5,0-0.9,0-1.4-0.1
		c-0.1,0-0.2,0-0.4,0c-0.2,0-0.4,0-0.6-0.1c-0.2,0-0.3,0-0.5-0.1c-0.3,0-0.6-0.1-1-0.2c-0.1,0-0.3-0.1-0.4-0.1
		c-0.9-0.2-1.8-0.5-2.6-0.8c-0.1-0.1-0.3-0.1-0.4-0.2c0,0,0,0,0,0c-0.1,0-0.2-0.1-0.3-0.1c-0.5-0.2-0.9-0.4-1.4-0.7
		C10,35.1,10,35.1,9.9,35c-0.1-0.1-0.3-0.1-0.4-0.2c-0.1-0.1-0.2-0.2-0.4-0.2c-0.1-0.1-0.2-0.2-0.4-0.2C8.5,34.2,8.2,34,8,33.8l0,0
		c-0.2-0.2-0.5-0.4-0.7-0.5C7.2,33.2,7.1,33.1,7,33C7,33,7,33,7,33c-0.1-0.1-0.2-0.2-0.3-0.2c-0.2-0.2-0.5-0.4-0.7-0.7
		c0,0,0,0-0.1-0.1c0,0,0,0-0.1-0.1h0c-0.2-0.2-0.3-0.3-0.5-0.5c0,0,0,0,0,0c-0.1-0.1-0.1-0.1-0.2-0.2c0,0,0,0,0,0
		c0-0.1-0.1-0.1-0.2-0.2c-0.7-0.8-1.3-1.7-1.9-2.6c-0.7-1.2-1.3-2.5-1.7-3.9c-0.5-1.6-0.8-3.4-0.8-5.2c0-0.1,0-0.2,0-0.3
		c0-2.4,0.4-4.6,1.3-6.7c0.2-0.5,0.4-0.9,0.6-1.4c0.4-0.8,0.9-1.7,1.4-2.4C4.3,8,4.8,7.4,5.3,6.8C8.7,3.1,13.6,0.7,19,0.7
		c3.6,0,7,1.1,9.9,2.9c0,0,0,0,0,0c0.1,0.1,0.2,0.1,0.3,0.2c0.2,0.1,0.4,0.3,0.6,0.4c0.2,0.1,0.3,0.2,0.5,0.3
		c0.3,0.2,0.6,0.5,0.9,0.7c0.1,0.1,0.3,0.3,0.4,0.4C31.7,5.8,31.9,5.9,32,6c0.1,0.1,0.3,0.3,0.4,0.4c0.1,0.1,0.3,0.3,0.4,0.4
		C32.9,7,33,7.2,33.1,7.3c0,0,0.1,0.1,0.1,0.2h0c0.1,0.1,0.1,0.1,0.2,0.2c0.2,0.2,0.4,0.5,0.6,0.7c0.1,0.1,0.2,0.2,0.3,0.4
		c0.1,0.2,0.2,0.3,0.3,0.5c0.1,0.1,0.1,0.2,0.2,0.3c0.1,0.2,0.2,0.3,0.3,0.5c0.1,0.1,0.2,0.3,0.2,0.5c0.1,0.2,0.2,0.4,0.3,0.6
		c0.1,0.2,0.2,0.3,0.2,0.5c0.1,0.3,0.3,0.7,0.4,1c0.1,0.2,0.2,0.5,0.3,0.7c0,0.1,0.1,0.3,0.1,0.4c0.1,0.2,0.1,0.4,0.2,0.7
		c0,0.1,0.1,0.3,0.1,0.4c0.1,0.2,0.1,0.4,0.1,0.7c0,0.2,0.1,0.3,0.1,0.5c0,0.3,0.1,0.5,0.1,0.8c0,0.2,0,0.3,0,0.5
		c0,0.2,0,0.4,0.1,0.7c0,0.1,0,0.3,0,0.4c0,0,0,0,0,0v0.1C37.4,18.7,37.4,18.9,37.4,19.1z"/>
	<path class="st1" d="M29,3.6C29,3.6,29,3.6,29,3.6C22.4,6.2,11.5,7.1,5.3,6.8C8.7,3.1,13.6,0.7,19,0.7C22.7,0.7,26.1,1.7,29,3.6
		C28.9,3.6,29,3.6,29,3.6z"/>
	<path class="st2" d="M37.4,19.9c0,0.7-0.1,1.3-0.2,2c-2.3,0.4-6,1.1-8.1,1.9c-3.1,1.2-7,1.4-9,1.3c-1.9-0.1-5.4,1.9-7.3,2.6
		c-1.2,0.4-6.4,0.7-9.6,0.8c-0.7-1.2-1.3-2.5-1.7-3.9c9.5,0.6,15.7-3.1,17.8-3C21.2,21.6,32.1,20.6,37.4,19.9z"/>
	<path class="st3" d="M36.4,25.2c-0.2,0.6-0.5,1.3-0.8,1.9c-0.3,0.6-0.6,1.1-0.9,1.6c-1.4,0.4-3.3,0.8-6,1.2
		c-0.7,0.1-1.5,0.3-2.4,0.4c-6.2,0.9-14.8,1.4-20,1.6c-0.2,0-0.3,0-0.5,0h0c-0.2-0.2-0.3-0.3-0.5-0.5c-0.1-0.1-0.1-0.1-0.2-0.2
		c0,0,0,0,0,0c0-0.1-0.1-0.1-0.2-0.2c4.2-0.4,10.3-1.4,13.5-2.6c2.1-0.8,7.2-1.7,11.8-2.4C32.7,25.7,34.8,25.4,36.4,25.2z"/>
	<path class="st4" d="M34.7,28.7c-0.5,0.8-1,1.5-1.6,2.2c-3.3,1-7.4,1.6-11.2,1.9c-5.4,0.4-10.3,0.3-11.7,0.1
		c-0.6-0.1-1.2-0.1-1.7-0.1C8,32.9,7.5,33,7,33C7,33,7,33,7,33c-0.1-0.1-0.2-0.2-0.3-0.2c-0.2-0.2-0.5-0.4-0.7-0.7c0,0,0,0-0.1-0.1
		c0,0,0,0-0.1-0.1h0c0.2,0,0.3,0,0.5,0c5.2-0.2,13.7-0.7,20-1.6c0.8-0.1,1.7-0.2,2.4-0.4C31.4,29.5,33.3,29.1,34.7,28.7z"/>
	<path class="st3" d="M29.6,34.1c-3,2.1-6.6,3.4-10.6,3.4c-0.5,0-0.9,0-1.4-0.1c-0.1,0-0.2,0-0.4,0c-0.2,0-0.4,0-0.6-0.1
		c-0.2,0-0.3,0-0.5-0.1c-0.3,0-0.6-0.1-1-0.2c-0.1,0-0.3-0.1-0.4-0.1c-0.9-0.2-1.8-0.5-2.6-0.8c-0.1-0.1-0.3-0.1-0.4-0.2
		C16.6,35.3,23.8,35.4,29.6,34.1z"/>
	<path class="st5" d="M36.2,12.6c-0.9,0.2-1.9,0.4-2.9,0.5c-8.1,1.2-19.8,1.1-30.8-2.2c0.4-0.8,0.9-1.7,1.4-2.4
		C11,9.9,23.5,9.9,31.7,7.9c0.5-0.1,1-0.3,1.5-0.4h0c0.1,0.1,0.1,0.1,0.2,0.2c0.2,0.2,0.4,0.5,0.6,0.7c0.1,0.1,0.2,0.2,0.3,0.4
		c0.1,0.2,0.2,0.3,0.3,0.5c0.1,0.1,0.1,0.2,0.2,0.3c0.1,0.2,0.2,0.3,0.3,0.5c0.1,0.1,0.2,0.3,0.2,0.5c0.1,0.2,0.2,0.4,0.3,0.6
		c0.1,0.2,0.2,0.3,0.2,0.5C36,12,36.1,12.3,36.2,12.6z"/>
	<path class="st4" d="M37.4,18.4c-0.8,0.2-2.2,0.4-4.2,0.7c-6.1,0.8-17.6,1.7-32.6,0.3c0-0.1,0-0.2,0-0.3c0-2.4,0.4-4.6,1.3-6.7
		c2.5,0.1,4.8,0.4,6.4,1.7c2.4,1.8,12.1,4.5,25.2,1.3c1.1-0.3,2.2-0.6,3.3-0.9c0,0.1,0.1,0.3,0.1,0.4c0.1,0.2,0.1,0.4,0.1,0.7
		c0,0.2,0.1,0.3,0.1,0.5c0,0.3,0.1,0.5,0.1,0.8c0,0.2,0,0.3,0,0.5c0,0.2,0,0.4,0.1,0.7C37.4,18.1,37.4,18.2,37.4,18.4z"/>
</g>
</svg>
