<?xml version="1.0" encoding="utf-8"?>
<!-- Generator: Adobe Illustrator 21.1.0, SVG Export Plug-In . SVG Version: 6.00 Build 0)  -->
<svg version="1.1" id="Layer_2" xmlns="http://www.w3.org/2000/svg" xmlns:xlink="http://www.w3.org/1999/xlink" x="0px" y="0px"
	 viewBox="0 0 1200 800" style="enable-background:new 0 0 1200 800;" xml:space="preserve">
<style type="text/css">
	.st0{opacity:0.65;fill:#809677;}
	.st1{clip-path:url(#SVGID_2_);fill:#231F20;}
	.st2{clip-path:url(#SVGID_2_);fill:#FFFFFF;}
	.st3{clip-path:url(#SVGID_2_);fill:#DDD1B4;}
	.st4{clip-path:url(#SVGID_2_);fill:#809677;}
	.st5{clip-path:url(#SVGID_2_);fill:#BEC0C2;}
	.st6{clip-path:url(#SVGID_2_);fill:#72594B;}
	.st7{clip-path:url(#SVGID_2_);fill:#BC9F77;}
	.st8{clip-path:url(#SVGID_2_);fill:#58595B;}
	.st9{clip-path:url(#SVGID_2_);fill:#A7A9AC;}
	.st10{clip-path:url(#SVGID_2_);fill:#543E36;}
	.st11{clip-path:url(#SVGID_2_);fill:#8C715D;}
	.st12{clip-path:url(#SVGID_2_);fill:#57744B;}
	.st13{clip-path:url(#SVGID_2_);}
	.st14{clip-path:url(#SVGID_2_);fill:#7D7E81;}
</style>
<rect y="555.1" class="st0" width="1200" height="244.6"/>
<rect class="st0" width="1200" height="244.6"/>
<g>
	<defs>
		<rect id="SVGID_1_" x="116.4" y="31.2" width="291.2" height="738"/>
	</defs>
	<clipPath id="SVGID_2_">
		<use xlink:href="#SVGID_1_"  style="overflow:visible;"/>
	</clipPath>
	<path class="st1" d="M306.8,34.3c-20,1.9-27.2,4-11.7,23.8c-6,4.2-17.3,16.4-19.4,38.3c-5.7,0-14.1,1,5.5,40.4
		c-0.2,0-33.9,32.6-33.9,32.6l13.1,19.1c0,0-39.3,18.4-50,28c-10.6,9.6-21.5,93.7-21.5,93.7l5.9,4.8l-4.4,60.3c0,0-7.3,17,2.5,38.7
		c-2.7,7.4-44.9,34.8-50,163.9c-1.3,71.9-26.2,109.8-24.3,119.6c2.3,11.9,36.5,26.4,37.5,25.2c32.1-37.9,26.2-123.3,28.4-149
		c29.7-2.8,49.2-6.1,49.2-6.1l-32.3-127.2c0,0,10.7-2.9,5.7-26.4c8,3.2,35.2,14.2,35.2,14.2s8.5,85.1,19.4,108.1
		c-4.4,47.8,14.2,99.9,18.7,129c3.2,5.9,11.5,11,6.5,20.9c1.4,8.4,6.7,23.4,6.7,23.4s0.4,71.2,28.2,55.1c10.5-7.7,11.8-24-5.3-47.4
		c-5.8-7.3-14.3-33.3-15.4-47.4c-0.8-10.2,0-12.7,0-12.7s-5.2-70.2-5.6-82.1c5.7-12,26-49.9,25.6-68.1
		c26.1-40.9,25.5-63.8,31.3-68.4c5.8-4.6,37.6-28.8,37.6-28.8l-21.9-39.9l33.8-35.2c0,0,3.7-13.6-0.2-24.2c1.4-10.2-3.4-84-9.9-93.1
		c-6.5-9.1-45.4-31.4-45.4-31.4l9.3-16.6c0,0-27.3-31.2-25.6-35.2c4.2-9.8,18.9-30,8.4-38.2c-3.3-21.1-10.4-30.6-16.2-33.2
		C329.6,55.9,347.6,31.6,306.8,34.3"/>
	<path class="st2" d="M365.8,306.6l9,26.6c0,0-7.1,7.1-5.1,11.9c0.1,0.1-8.3,7.1-8.3,7.1l-5-9.1L365.8,306.6z"/>
	<path class="st2" d="M202.8,374.7c9.4-33,25.7-61.7,25.7-61.7s13.5,21.2,5.9,37.2c-7.5,16-27.1,51.1-27.1,51.1
		S200.4,381.4,202.8,374.7"/>
	<path class="st3" d="M258.6,429.2c-18.7-2.8-34.2-11.6-51.3-17.8c4.7-10,9-19.1,13.4-28.2c6.5-13.6,13.2-27,19.5-40.7
		c0.9-1.8,0.3-4.6-0.2-6.8c-1.1-5.2-2.4-10.4-3.8-15.6c-2.8-10-5.9-19.9-8.6-29.9c-6.2-23-10.9-46.2-12.9-69.9
		c-0.1-1.6,1.2-4.1,2.5-5c13.7-8.2,27.6-16.1,41.4-24.1c0.5,0.2,1,0.5,1.5,0.7c-0.3,1.8,0,3.8-0.8,5.2c-6.2,10.8-12.7,21.4-19,32.1
		c-0.5,0.8-1.2,1.6-1.7,2.4c-5,8-4.9,7.9,2.1,13.8c5,4.2,10.2,8.4,14.2,13.4c6.6,8.3,12.2,17.4,18.5,26c4.9,6.8,4.3,14.9,5.8,22.5
		c1.2,6.2,3.9,12.4,4.1,18.6c0.3,11,0.5,22.4-1.9,33.1c-3.3,14.6-9.1,28.6-13.8,42.8C264.7,410.9,261.8,419.8,258.6,429.2
		 M267.2,368.6c0.2-0.6,0.5-1.1,0.7-1.7c-1.1-0.6-2.1-1.5-3.2-1.9c-6.7-2.5-13.5-4.9-20.2-7.2c-1.2-0.4-2.7-0.2-4-0.3
		c1,1.1,1.8,2.7,3.1,3.2c4.9,1.8,9.9,3.3,14.8,4.9C261.3,366.6,264.3,367.6,267.2,368.6"/>
	<path class="st3" d="M348.7,439.1c-3.3-10-6.2-19.3-9.4-28.5c-2.2-6.3-4.2-12.8-7-18.8c-10.9-23.2-13.9-47.5-11.1-72.8
		c1-9.6,1.1-19.3,2.7-28.8c2.9-16.9,12.9-30.1,24.1-42.5c5.4-6,11.1-11.9,16.8-18c-8.2-10.5-16.4-21-24.6-31.5
		c2.4-3.5,4.6-6.8,7.1-10.5c8.7,5.7,17.1,11.2,25.5,16.8c4.6,3.1,9,6.4,13.6,9.5c2.4,1.6,3,3.5,2,6.2c-5,14-10.1,28-14.6,42.1
		c-3.8,11.8-7.2,23.8-10.1,35.8c-3.6,14.4-6.5,29-9.6,43.6c-0.4,1.7,0.2,3.9,1.1,5.5c10.1,19.3,20.2,38.6,30.5,57.8
		c1.9,3.5,1.4,5.3-1.7,7.6C372.4,421.2,361.1,429.8,348.7,439.1 M356.8,358c-0.4-0.7-0.8-1.4-1.2-2.1c-9.3,2.7-16.9,8.8-25.4,13.5
		c3,3.4,3.4,3.4,6.3,1.7c4.9-3,9.9-5.7,14.7-8.8C353.3,361,355,359.4,356.8,358"/>
	<path class="st4" d="M300,410.1c1.7,19.7,1.9,39,0.2,58.3c-1.7,19.9-7.1,38.9-13.7,57.6c-2.6,7.5-2.1,14.7,0.1,22.1
		c5.5,18.3,7,37.3,8.2,56.3c1,16,2.1,31.9,3.2,48.7c-4.1,1-9.4,2.5-14.8,3.4c-0.9,0.2-2.9-2.1-3.2-3.5c-3.7-16.1-7.4-32.2-10.8-48.4
		c-2.3-11-5.2-22.1-6.1-33.3c-0.8-10.3,0.8-20.9,1.1-31.3c0.1-2.8-0.3-5.7-1.3-8.3c-8.2-21.6-12.2-44.1-14.2-67
		c-0.9-10.6-1.7-21.1-2.5-32.4c2,0.3,2.9,0.4,3.7,0.6c9.6,2.4,11.2,1.8,13.7-7.6c1.2-4.5,3.8-6.4,7.7-8.3
		C280.4,412.8,290,411.4,300,410.1"/>
	<path class="st4" d="M296.9,566.3c-5.6-16.6-9.7-32.3-2.9-49.8c9.2-23.8,11.8-49.3,11.6-74.9c-0.1-10.8,0-21.6,0-32.3
		c7.5-3.7,15.8-7.8,24.4-12.2c4.5,12.6,9,25.3,13.5,38c0.4,1.1,0.5,2.4,1.3,3.2c3.9,4.1,2.9,8.6,1.3,13.1
		c-6.5,18.6-14.4,36.5-26.5,52.4c-0.9,1.2-1.7,3-1.5,4.4c1.4,10.1-2,19.1-6.2,27.9C307.1,546.3,301.9,556.3,296.9,566.3"/>
	<path class="st5" d="M304.7,334.9c-0.4,5.2-1,10.4-1.2,15.7c-0.3,10.7-0.2,21.3-0.3,32c-0.1,4.8,1.9,10.6-6.7,12
		c6.9,1.3,7.3,5.3,6.1,10.2c-8.9,1.8-17.8,3.7-28,5.7c6.6-8.5,12.6-16.3,19-24.5c-7.3-2.1-11.2,3.5-17.2,5.9c1-3,1.7-5.2,2.6-7.4
		c5.3-13.7,8.1-28,9.2-42.6c0.7-9.3-0.4-18.4-2.6-27.6c-2.6-11.1-3.5-22.6-5.1-34c-0.1-0.5-0.1-1.2,0.1-1.4
		c5.5-4.6,2.3-10.9,3.2-16.4c0.3-1.5,1.6-2.8,2.5-4.1c0.7,1.4,1.9,2.8,1.9,4.2c-0.1,8.8-0.6,17.6-0.8,26.4c0,1.7,0.6,3.4,1,5
		c0.6,0,1.1,0,1.7-0.1c0.2-1.3,0.6-2.6,0.7-3.9c0.3-9.3,0.5-18.7,0.9-28c0.1-1.2,1.4-2.3,2.1-3.5c0.7,1.1,1.9,2.3,1.9,3.4
		c-0.2,9.5-0.8,19-1,28.5c0,3.1-2.4,6.8,1.7,9.2c0.7-2.8,2-5.5,2.1-8.3c0.4-9.9,0.6-19.9,0.6-29.8c0-3.2,1.2-3.9,4.1-3.8
		c3.6,0.2,7.2,0,12,0c2.5-3.7-0.3-9,0.3-14c5.2-1.8,6.3-1.4,6.1,3.5c-0.4,12.4-0.3,25-2.4,37.1c-1.1,6.3-6.5,11.8-10.3,17.6
		c-1.7,2.6-3.9,4.7-6.2,7.4c5.2,3.7,8.9-1.5,13.3-1.3c0,9.6-0.4,19.1,0.1,28.5c0.6,9.9,2.1,19.8,3.1,29.7c0.2,1.6-0.5,3.4-0.8,5
		c-0.5,0-1.1-0.1-1.6-0.1c-0.5-1.4-1-2.7-2-5.3c-2.5,4.6-0.9,11.5-8.6,10.6V335C305.8,335,305.3,334.9,304.7,334.9"/>
	<path class="st6" d="M198.8,440.5c10.9,42.1,21.7,84,32.6,126.5c-14.9,1.5-30.1,3.1-45.8,4.7c-0.4-3.5-1.2-7.2-1.3-10.8
		c-0.4-18.8-1.3-37.7-0.8-56.5c0.5-17.9,2.3-35.8,3.9-53.7C188.1,443.2,192,440.5,198.8,440.5"/>
	<path class="st7" d="M275.2,277.5c-11-12.8-22.1-25.8-33.5-39.1c6-10.2,12.2-21.7,19.3-32.5c5.3-8.2,7-15-1.4-22.1
		c-3.3-2.8-4.9-7.3-7.7-10.7c-2.1-2.5-1.6-4.4,0.4-6.3c9.5-8.8,19-17.5,29-26.7c2.4,3.7,4.8,7.1,6.9,10.7c0.5,0.9,0.3,2.7-0.3,3.6
		c-11.2,15.7-14,34-16.1,52.4C269,230.7,271.5,254.4,275.2,277.5 M263.7,235.4l0-1.9c-3.9-2.9-10.3-2.3-13.7,2.5
		C254.6,235.8,259.2,235.6,263.7,235.4"/>
	<path class="st7" d="M328.9,263.7c0-6.9,0.2-14.4-0.1-21.8c-0.1-2.7-1.5-5.3-1.6-8c-0.8-24.2-1.5-48.3-2.2-72.5
		c-0.1-4.2-0.1-8.5-0.7-12.6c-0.7-4.9,1.3-8.1,5.3-11c6.1,7.9,12.1,15.8,18.3,23.5c6.9,8.6,6.9,8.5,0.1,17.7
		c-3.3,4.5-6.4,9.1-9.7,13.7c-2.3,3.2-2.3,6,0.2,9.3c6.8,8.8,13.3,17.8,19.8,26.6C348.3,240.3,338.4,252.2,328.9,263.7"/>
	<path class="st8" d="M145.8,628.6c-0.9,4.7-1.7,9.4-2.6,14.3c-3.5-0.4-4.3-1.9-3.9-5.5c2-19.4,3.7-38.8,5.5-58.2
		c0.4-3.7,0.9-7.4,2.1-11.1c1.8,13.8,3.8,27.5,5.4,41.3c1.7,13.8,2.2,27.7-2.4,41.3c4-0.7,4.9-1.8,5.8-6.6c0.6-3,1.2-6.1,1.9-9.4
		c6.6,14.2,1.1,70-8.2,83.4c-3-1.8-6-3.6-8.9-5.3c1.1-4.8,1.1-4.8,9.9-3.8c-2.2-2.6-4.6-5.4-6.9-8.1c-1.6-0.6-4.2-0.9-5.5-2.4
		c-0.9-1-0.3-3.7,0.2-5.4c0.8-2.6,2.1-5.1,3.3-7.8c1.8,0.5,3.3,0.9,4.9,1.3c-5.2-3.9-0.4-8.9-2.2-13.6c-1.1,2.2-2.2,4.4-3.3,6.6
		c-4.5-1.4-6-3.8-3.6-8c1.7-3.1,3.2-6.3,5.7-8.8c0-2.1-0.3-4.2,0.1-6.3c1.5-7.7,3.2-15.2,4.7-22.9c0.3-1.6-0.2-3.3-0.3-4.9
		C146.7,628.6,146.3,628.6,145.8,628.6"/>
	<path class="st2" d="M279.2,100.4c0.9,2.9,1.6,7.1,3.6,10.5c1.5,2.5,4.5,5.2,7.2,5.6c4.2,0.6,8.9-0.1,11.3-4.9
		c1.9-3.8,4.2-7.4,7-12.3c1.5,3.6,2.9,6.2,3.8,8.9c2.3,7.4,5.7,9.9,13.3,8.7c2-0.3,4.3-2.3,5.5-4.2c1.6-2.4,2.2-5.4,3.7-9.1
		c0.5,14-1.2,26.5-11.2,35.7c-1.3,1.2-2.5,2.6-3.6,4c-5.9,7.4-17.5,10.5-26.5,7.9c-0.7-0.2-1.4-0.8-1.7-1.4
		c-4.2-7.5-8.4-15-12.3-22.7c-0.7-1.4-0.2-3.5-0.2-5.3C279.2,114.2,279.2,106.7,279.2,100.4"/>
	<path class="st3" d="M392.5,223.5c0.8,3.8,2,7.5,2.4,11.3c1.7,16.4,2.9,32.9,5,49.3c1.2,8.9-1.1,14-9.9,17.3
		c-6.3,2.3-11.6,7.2-17.7,11.1c-4-7.4-5.1-14.3-2-22.3c3.2-8.2,4.7-17,7.4-25.4c4.4-13.8,9.1-27.6,13.7-41.4
		C391.7,223.5,392.1,223.5,392.5,223.5"/>
	<path class="st3" d="M224.4,309c-9.1-6.4-18.2-12.7-27.2-19.2c-0.9-0.7-1.2-3-1-4.4c2.9-17.1,5.8-34.2,9-51.2
		c0.7-3.7,2.6-7.2,4.2-11.4c2.6,15.1,4.9,29.3,7.5,43.5c2.7,14.1,8.5,27.5,9.3,41.9C225.6,308.5,225,308.7,224.4,309"/>
	<path class="st6" d="M309.1,709.5c4.5,6.3,9.1,12.1,13.1,18.2c5.4,8,7.9,16.8,5.6,26.5c-1.6,6.7-6.5,11-12.1,11.2
		c-5.3,0.2-11.5-4.4-13-10.8c-2.6-10.9-5.2-21.9-6.6-33c-0.5-4.5,1.7-9.7,3.8-14.1c1.4-3,3.5-0.6,4.6,1.3c1.1,1.7,2.1,3.5,3.2,5.2
		c0.5-0.2,1-0.4,1.4-0.6V709.5z M304.9,719.6c0.6,0.1,1.1,0.3,1.7,0.4c-6.2,4.7-2.2,9.7-1.8,14.6c2,0.4,4,0.8,6,1.2
		c-0.4,2.9-0.7,5.3-1,7.8c1.8,0.2,3.2,0.4,4.9,0.5c-0.9,4.6-1.7,8.9-2.6,13.2c0.6,0.2,1.1,0.3,1.7,0.5c3.2-4,3.7-9.2,4.6-14
		c0.2-1.2-2.4-2.9-4.2-5c2.4-4,1.5-7-4.7-7c0.2-1.9,1.2-4.3,0.5-4.9c-3.3-2.8-1.4-4.9,0.2-7.4c0.4-0.7-0.6-3.3-1.2-3.4
		c-3-0.3-6.1-0.2-9.2-0.2c0,0.7-0.1,1.3-0.1,2C301.3,718.5,303.1,719.1,304.9,719.6"/>
	<path class="st9" d="M161.8,542.2c-0.6-6.1-1.2-11.8-1.8-17.5c-0.8,0.1-1.6,0.1-2.4,0.2v18.4c-2.8,0.1-4.7,0.2-8,0.4
		c0.8-11.7,1.6-23,2.4-34.3c0.1-1,0.4-1.9,0.5-2.9c1.1-8.9,1.1-8.9,9-11.1c-2.2-0.8-3.7-1.3-5.8-2c-0.5-6.7,2.6-12.5,5.5-18.2
		c0.7-1.3,5-0.7,8.2-1.1c-0.6,8.9-1.2,17.1-1.8,25.2c-0.1,1.6-0.4,3.3-0.3,4.9c0.3,6.6,0.4,6.6-5,9.5c1.7,0.6,3.1,1.2,4.2,1.6
		c0.5,7.6,0.9,14.9,1.4,22.3C168.4,543.2,168.2,543.4,161.8,542.2"/>
	<path class="st2" d="M302.9,190.4c-5.6-8.2-10.6-15.2-15.2-22.5c-1.9-3,0.9-13.2,4.5-13.6c2.4-0.3,7.2,0.5,9.6,0.4
		c7.5-0.2,13.5-3.9,18.9-8.9c0.8,8.6,0,19.4-6.1,26.2C310.2,177.1,307.3,183.5,302.9,190.4"/>
	<path class="st5" d="M368.8,344.8c1-0.7,2.2-1.3,3-2.3c1.1-1.3,1.9-2.8,2.8-4.2c0.6,0.4,1.2,0.8,1.8,1.2c-2.3,3.1-4.6,6.1-7,9.3
		c0.6,0.6,0.3,0.5,0.9,1.1c2.5-2.1,5.1-4.1,7.6-6.2c2.7,2.4,2.7,2.4-1,10.1c1.4-1,2.9-1.8,4-3c3.2-3.2,6.3-6.7,9.6-9.8
		c0.7-0.7,2.3-0.5,3.5-0.8c0.3,0.7,0.6,1.4,0.9,2.1c-8.8,7.8-17.5,15.6-26.6,23.7c-3-6.4-3.5-7.5-7.1-15.2L368.8,344.8z"/>
	<path class="st2" d="M306.2,85.1c2.3-6.9,6.8-5.2,11.1-3.8c7.1,2.4,12.7,6.5,16.3,14.5c-18.7-0.6-36.4-1.2-55.2-1.8
		c5-7.4,10-13.4,18.7-13.8C300.4,80.1,304.6,79.9,306.2,85.1"/>
	<path class="st8" d="M175.7,585.6c-1.1-9.9-2.4-19.6-3.1-29.3c-0.9-11.7-1.4-23.5-1.8-35.2c-0.2-6.5,0.1-6.5,8.1-6.7
		c0,5.7-0.2,11.3,0,16.9c0.7,16,1.5,32.1,2.5,48.1C181.6,583.2,180.8,585.5,175.7,585.6"/>
	<path class="st8" d="M176.1,618.5c0.4-1.7,1.2-3.5,1.1-5.2c-0.1-7.2-0.6-14.4-0.6-21.6c0-1.4,1.7-2.8,2.6-4.2
		c0.5,0.2,1,0.4,1.6,0.6c0.3,1.7,1,3.4,1,5.1c-0.5,14.7-1.1,29.5-1.6,44.2c-0.1,5.2-3.9,4.7-7.8,5.7c-0.5-5.9-0.9-11.6-1.6-17.2
		c-1.3-10-2.9-20.1-4.5-30.1c-0.9-5.3-0.4-5.9,5.9-4.7c0.7,8.9,1.4,18,2.1,27C174.9,618.4,175.5,618.4,176.1,618.5"/>
	<path class="st7" d="M194.4,293.4c10.1,7.1,19.4,13.6,29.1,20.3c-1.5,3.3-2.9,6.5-4.6,10.4c-8.8-4.7-17.2-9-25.4-13.6
		c-1-0.5-1.5-2.8-1.4-4.2C192.6,302.3,193.5,298.3,194.4,293.4"/>
	<path class="st5" d="M312.5,228.5v10.8c-4.4,0.8-8.4,1.5-12.8,2.3c0.1-4.2-2.5-8.4,1.5-10.9c-1.1-2.4-2.1-4.8-3.2-7.2
		c0.3-0.3,0.6-0.7,0.9-1c4,4,6.8,2.7,9.7-1.1c3.4-4.3,7.4-8.2,12.1-13.3v30.5c-1.3,0.1-2.8,0.3-4.9,0.6c-0.6-3.8-1.1-7.3-1.6-10.8
		C313.7,228.4,313.1,228.5,312.5,228.5"/>
	<path class="st5" d="M215,334.8c-1.6,4.1-3.3,8.1-4.7,12.3c-1.1,3.4-2.8,4.9-6.4,3.6c-0.8-0.3-1.7,0.2-3.1,0.4
		c2.3,1.8,5.8,3.5,5.7,4.7c-0.4,3.1-2.3,6.1-3.4,8.5c-8.6-0.7-10.2-5.1-9-11.8c0.5-3,0.1-6.2,0.1-9.3c0.6,0,1.1,0,1.7,0v9.1
		c0.4,0.1,0.8,0.2,1.2,0.3c0.2-3.8,1.4-9.6,1.4-9.6l1.9-8.3l1.4-6.4c7.5,1.8,4.3,7.3,5.8,11.1c0.8-2.4,1.5-4.2,2.3-6.3
		C211.7,333.8,213.3,334.3,215,334.8L215,334.8z"/>
	<path class="st7" d="M400.6,301.5c-0.3,4.3-0.4,8.7-0.9,13c-0.1,1-1.4,2.3-2.5,2.8c-6.9,3.2-14,6.2-21,9.3
		c-0.4-0.6-0.7-0.9-0.8-1.4c-2.6-8.4-2.6-8.3,5-12.9c6.2-3.8,12.3-7.9,18.5-11.8C399.4,300.8,400,301.1,400.6,301.5"/>
	<path class="st9" d="M167.6,544.7c1.5,13,2.9,25.4,4.4,37.7c0.4,3.4-0.3,5.1-4.1,5.5c-4.1,0.5-4.2-1.7-4.4-4.6
		c-0.6-11.1-1.4-22.2-2.1-33.4C161.1,545.3,163.6,544.2,167.6,544.7"/>
	<path class="st9" d="M155.3,718.8c1.3-6,2.1-12.2,3.9-18.1c4.4-15.1,5.6-30.5,5.3-46.1c0-1.1-0.3-2.4,0-3.4
		c0.5-1.3,1.4-2.4,2.2-3.6c0.7,1.1,2,2.1,2,3.2c-0.2,7.5-0.5,15-1.2,22.5c-0.6,7-1.5,14-1.6,21.3c1-1.8,1.9-3.6,2.9-5.3
		c-3.1,10.4-5,21.4-12.1,30.1C156.3,719.2,155.8,719,155.3,718.8"/>
	<path class="st10" d="M297.8,58.6c1.2,4.6,2.8,8.6,3.8,12.7c0.5-0.1,0.5-0.1,0.9-0.3c-0.8-2.6-1.7-5.2-2.2-7.9
		c-0.6-3.2,0.8-5.1,4.2-5c0.8,0,1.6,0,2.4,0c7.6,0.1,7.8,0.3,5.2,7.4c-1.8,4.8-3.3,9.6-4.9,14.4c-0.7-0.1-1.3-0.1-2-0.2
		c-0.4-1.6-1.3-2.8-1.9-5.3c-0.7,2-0.8,3-1.3,4.3c-4.1-0.8-12.3-8.3-12.6-11.8c-0.1-1.3,0.9-3.2,2-4.1C293.5,61,296,59.8,297.8,58.6
		"/>
	<path class="st8" d="M178,512.2c-2.3-0.1-4.2-0.2-6.1-0.3c-2.7-15.7,3-55.5,7.8-56.9C179.2,473.9,178.6,492.8,178,512.2"/>
	<path class="st11" d="M324.1,62.4c0.8,6.8-4,12.4-12,13.9c3.5-13.1,6.9-26,10.8-40.9c3.7,3,7,4.7,8.6,7.3c2,3.4,0.1,6.9-2.7,9.6
		c-2,1.9-4,3.9-5.9,5.9c-1.9,2.1-1.2,3.4,1.3,4.3C324.2,62.5,324.1,62.4,324.1,62.4"/>
	<path class="st4" d="M284.3,171.4c5.5,7.1,10.6,13.6,15.5,20.4c0.7,0.9,0.2,3.5-0.7,4.6c-1.5,1.9-3.8,3.1-5.8,4.7
		C279.1,189.1,277.3,187.3,284.3,171.4"/>
	<path class="st9" d="M190.4,421.5c2.1,7.6,0.8,10.6-4.5,13.5c-2,1.1-4.1,3-5,5c-4.3,10.1-8.3,20.4-12.4,30.7
		c0.4,0.3,0.8,0.7,1.3,1.1c-2.3-0.1-4.7-0.3-8.1-0.5C169.7,453.3,176.4,435.8,190.4,421.5"/>
	<path class="st9" d="M282.7,97.5h22.4c-2.3,6.1-5.3,11.6-10.6,15.3c-3.3,2.3-7.4,0.9-8.8-2.9C284.4,106.2,283.8,102.3,282.7,97.5"
		/>
	<path class="st4" d="M320.3,171.2c1,11.7,2,22.9-8.9,30.9c-6.3-7.4-6.4-8.8-1.2-16.8c2.8-4.4,5.5-8.8,8.3-13.2
		C318.8,171.8,319.4,171.7,320.3,171.2"/>
	<path class="st9" d="M311.9,98.4h20.8c-2.4,5.3-3.9,9.5-6.1,13.3c-1.7,3-9.3,1.8-10.6-1.5C314.5,106.3,313.3,102.3,311.9,98.4"/>
	<path class="st9" d="M154.6,592.7c4.6-1.9,6.8-0.6,7.5,4.5c1.2,8.2,3,16.3,4.6,24.4c-6.7,1.7-8.5,0.4-9.2-5.7
		C156.6,608.1,155.6,600.4,154.6,592.7"/>
	<path class="st2" d="M194.8,405.2c-2.1-6.9-8.4-12.2-5.5-20.2c1.1-3,2.5-6,4.1-8.8c0.5-0.9,2.6-1.7,3.3-1.4
		c1.5,0.7,3.9,2.8,3.7,3.3c-3.4,7.7-3.4,15.8-3.4,23.9c0,0.6-0.4,1.3-0.7,1.8C196.1,404.2,195.7,404.4,194.8,405.2"/>
	<path class="st9" d="M158.6,577.4c-5.2,1.6-6.8-0.2-6.9-4.5c-0.2-6.7-0.9-13.4-1.2-20.1c-0.3-6.2-0.2-6.2,6.7-6.1
		C157.6,556.9,158.1,567.1,158.6,577.4"/>
	<path class="st4" d="M301,219c-12.7-7.8-24-21.1-21.9-26.1c3.8,3.6,7.7,7,11.3,10.7c3.1,3.2,5.5,4,7.6-0.9c0.4-0.9,1.4-1.6,3-3.3
		V219z"/>
	<path class="st2" d="M291.4,683.9c-1.4-5.2-2.8-10.4-4.3-16.1c4.2-0.9,7.8-1.7,11.7-2.6c0.6,5.3,1.3,10,1.7,14.7
		C300.9,683.6,298.2,684.7,291.4,683.9"/>
	<path class="st6" d="M314.8,56.9c-6.8-0.1-7.1-0.4-6.6-6.4c0.4-4.7,0.8-9.4,1.3-14.8c3.6,0.2,7.1,0.3,11.3,0.5
		C318.6,43.7,316.7,50.4,314.8,56.9"/>
	<path class="st11" d="M298.7,54.7c-1.6-5.4-3.3-10.8-5.1-17c4.1-0.8,7.9-1.6,12.2-2.5c0,6.7,0.1,12.6-0.1,18.4
		c0,0.9-1.1,2.7-1.5,2.6c-1.9-0.3-3.8-1.1-5.6-1.7C298.6,54.6,298.7,54.7,298.7,54.7"/>
	<path class="st5" d="M305.5,405.3c0.4-11.9,0.7-12.4,8.4-14.2c0.1,1.3,0.2,2.5,0.4,3.8c0.2,1.2,0.5,2.4,1.9,3.7
		c0.4-1.6,1.2-3.3,1-4.7c-0.9-4.9,2.8-5.5,5.8-5.6c1.7-0.1,3.5,1.9,5.2,2.9c-0.1,0.7-0.1,1.4-0.2,2.1
		C320.8,397.1,313.7,400.9,305.5,405.3"/>
	<path class="st5" d="M379.3,337.2c-1.9-2.7-0.5-6.9,3.1-8.8c5.5-2.8,11.2-5.3,16.8-7.9c3.3,4.4,3,5.9-1.3,7.9
		c-0.9,0.4-1.5,1.5-2.1,2.3c-0.9,1.2-1.7,2.4-3,4.3c-1.8-2.3-3.2-3.9-4.8-6C385.2,331.7,382.3,334.4,379.3,337.2"/>
	<path class="st9" d="M135,657.7c3.2,4.3,2.3,9.5-3.7,16.7c-0.5-2.5-1.5-4.2-1.1-5.7c1.7-6.9,3.7-13.8,5.9-20.6
		c0.5-1.5,2.5-3.8,3.5-3.6c2.7,0.5,3.4,2.7,2.1,5.3c-0.4,0.9-0.5,1.9-0.8,2.8C139.8,657.7,139.8,657.7,135,657.7"/>
	<path class="st8" d="M178.8,644c0,19.5-1.7,25.9-6.5,26.5c0-7.6-0.2-15.2,0.2-22.8C172.7,646.5,176.1,645.5,178.8,644"/>
	<path class="st6" d="M200.5,389.4c3.4,7.6,4.3,14.7-0.3,22.4c-2.7,4.5-2.8,10.6-3.6,16c-0.5,2.8-0.1,5.7-0.8,8.6
		c-2.5-6.4-1.7-12.9-0.2-19.2c1.4-6,3.6-11.9,4.9-17.9C201.1,396.1,200.5,392.7,200.5,389.4"/>
	<path class="st4" d="M305.8,198.4c1,2.2,2.1,4.3,3.1,6.5c1.5,3.3,3.4,3.8,5.9,0.9c1.6-1.8,3.1-3.7,5.2-5.2
		c-2.7,7.5-9.3,12.1-15.1,17.8v-19.7C305.2,198.6,305.5,198.5,305.8,198.4"/>
	<path class="st5" d="M313.1,243.5c-0.4,3.8-0.7,6.9-1,10.2c-3.6,0.2-6.8,0.7-9.9,0.5c-1.1-0.1-2.7-2-2.9-3.3
		c-0.3-2.3-1.6-5.7,2.3-6.4C305.2,243.8,308.8,243.8,313.1,243.5"/>
	<path class="st6" d="M318.2,79.6c3.1-3.1,4.9-6.3,8.1-9.4c0.5-0.5,1.1-1.1,1-1.7c1.6,2.6,3.5,5.2,4.7,8c0.4,0.9-0.9,3.2-2.1,3.8
		c-1.9,1.1-4.4,2.2-6.5,2C321.3,81.9,319.2,80.1,318.2,79.6"/>
	<path class="st5" d="M288.1,254.1c-3.7,1.6-5.1-0.5-5.1-3.5c0-5.2,0.4-10.4,0.8-15.6c0.1-0.7,1.4-1.3,2.1-2
		c0.7,0.9,2.1,1.8,2.1,2.7C288.2,241.7,288.1,247.7,288.1,254.1"/>
	<path class="st9" d="M164.5,646.5c-1.5-8-2.6-14.1-3.8-20.6c1.7-0.5,3.5-1,5.9-1.8c0.7,6.3,1.5,11.9,1.7,17.5
		C168.3,643,166.2,644.4,164.5,646.5"/>
	<path class="st5" d="M295.6,232.3c0,6.7,0.1,13-0.1,19.4c0,0.9-1.2,1.8-1.9,2.7c-0.7-0.9-1.8-1.8-1.9-2.7
		c-0.4-5.2-0.5-10.5-0.7-15.7C290.9,232.9,292.4,231.9,295.6,232.3"/>
	<path class="st5" d="M275.5,232.4c4.1-0.6,5.3,0.7,5.2,3.7c-0.2,5.4-0.1,10.7-0.3,16.1c0,0.9-1.1,1.7-1.6,2.5
		c-0.7-0.7-1.9-1.4-1.9-2.2C276.3,245.9,275.9,239.3,275.5,232.4"/>
	<path class="st2" d="M273.7,118.7c-2.3-5.8-4.5-11.6-3.3-18.1c0.2-0.9,1.3-1.8,2.2-2.3c0.3-0.2,1.9,1,2,1.6
		c0.5,6.2,0.9,12.4,1.2,18.6C275,118.6,274.4,118.7,273.7,118.7"/>
	<path class="st10" d="M291.6,53.5c-1.1-2.5-2-5.2-3.3-7.5c-1.8-3.2-1.2-5.2,2.4-6.5c2.7,5.1,5.4,10.2,8,15.3c0,0-0.1-0.1-0.1-0.1
		c-3.5,6.1-4.8-0.8-7.1-1.3L291.6,53.5"/>
	<path class="st3" d="M293.6,693.7c0.1-1.6,0.2-3,0.3-4.4c0.4-0.1,4.3-1.7,4.8-1.7c0.7,1.8,4.8,8.7,3.6,10.6c1.3-0.3,2.1-0.8,4-1.2
		c0.4,1,0.7,2,1,2.8c-2.8,1.6-10,4.9-12.7,6.5c-1.2-4-2.6-8.6-4-13.5C291.7,693.1,292.5,693.4,293.6,693.7"/>
	<path class="st5" d="M306.4,390.1c-1.6-9-1-10,6.4-12C314.7,387,314.7,387,306.4,390.1"/>
	<path class="st9" d="M133,694.8c-4.8-3.6-4.5-6.2,1.4-14c1.4,0.5,2.8,1,5,1.8C137.1,686.9,135,690.8,133,694.8"/>
	<path class="st5" d="M320.9,372.2c0.8,2.7,1.5,5,2.1,7.4c1.3,5.6,0.7,6.2-5.3,5.8C315.2,376.5,315.3,376,320.9,372.2"/>
	<path class="st5" d="M284,217.9c-0.6-1.8,0.4-4.7-1-7c0.6-0.3,1.2-0.5,1.8-0.8c7,4,2.6,10.6,2.8,16.2c0,1.2-1.5,2.5-3.1,3.3
		C284.7,225.4,282.3,222.1,284,217.9"/>
	<path class="st11" d="M287,68.1c2.2,3.3,4,6.1,6.9,10.4c-3.7,0.1-7,1.3-8.4,0.1C281.4,75.2,284,71.8,287,68.1"/>
	<path class="st9" d="M154,579.3c1.8,0.9,4.8,1.4,5.2,2.7c2.2,6.5,1.8,6.9-5.1,8.5c-0.3-3.2-0.7-6.3-1-9.4
		C153.3,580.5,153.7,579.9,154,579.3"/>
	<path class="st5" d="M276.7,203.4c3.6,2.2,6,8.3,4.4,10.8c-0.6,0.9-2.5,1.5-3.7,1.4c-0.8-0.1-2.2-1.6-2.1-2.5
		C275.5,209.9,276.2,206.8,276.7,203.4"/>
	<path class="st12" d="M300.1,659c-2.5,0.9-5.1,1.9-7.7,2.7c-2.3,0.8-4.7,1.5-7.1,2c-0.9,0.2-1.9-0.3-2.9-0.5c0.6-1,1-2.7,1.8-2.9
		c5-1.3,10.1-2.3,15.1-3.3C299.5,657.7,299.8,658.4,300.1,659"/>
	<path class="st5" d="M275.3,218.9c2.2,0.2,3.7,0.4,5.4,0.6c0,2.6,0.2,5-0.1,7.3c-0.1,1-1.2,1.9-1.9,2.8c-1.1-0.9-3-1.7-3.2-2.7
		C275,224.4,275.3,221.7,275.3,218.9"/>
	<path class="st5" d="M295.8,228.7h-4.6v-12.2C298.4,218.7,295.1,224.1,295.8,228.7"/>
	<path class="st9" d="M206.4,425.5c-2.2,0.7-4.1,1.3-7.2,2.3c1.4-5,2.7-9.3,3.9-13.7c0.4,0.1,0.8,0.1,1.2,0.2
		C205,418,205.7,421.7,206.4,425.5"/>
	<path class="st10" d="M334.4,80.2c0.8,4.4,1.5,8,2.2,11.6c-0.5,0.2-0.9,0.5-1.4,0.7c-2.4-2.6-4.7-5.1-7.4-8
		C329.9,83.2,331.6,82.1,334.4,80.2"/>
	<path class="st8" d="M182.3,453.8c-5.1-5.2,1-15.1,9.3-17.2C186.8,441.1,181.6,445.3,182.3,453.8"/>
	<path class="st9" d="M136.6,710.5c-1.9-1.6-3.5-2.9-5.4-4.4c1-1.9,2-3.7,3-5.5C140.5,704.5,140.7,705.2,136.6,710.5"/>
	<path class="st9" d="M125.1,690c-0.7-2.2-1.6-3.5-1.4-4.5c0.7-2.7,1.8-5.3,3.1-7.7c0.5-0.9,1.7-1.4,2.6-2.1c0.4,1.3,1.4,2.8,1,3.7
		C129.1,682.6,127.3,685.7,125.1,690"/>
	<path class="st8" d="M206.1,428.3c0.9,7,0.7,7.3-6.2,8C197.9,430.7,202.8,430.5,206.1,428.3"/>
	<path class="st5" d="M390.3,337c-2.3,2.1-4.5,4.1-6.6,6.1c-2.7-2.2-2.5-2.1,0.6-6.5C386.4,333.6,387.9,334,390.3,337"/>
	<path class="st5" d="M215,334.9c-0.6-1.1-3.4-1.1-4-2.2c-1-1.8,1.6-5.3,0.1-7.9c8,0.9,8,0.9,5.2,9.4
		C216.4,334.2,215,334.9,215,334.9"/>
	<path class="st5" d="M280.3,258.3v13.8c-1.8-5.4-3.6-9.5-2-13.8C279,258.3,279.6,258.3,280.3,258.3"/>
	<path class="st13" d="M279.3,397.4l-8.4,12.2c-0.4-0.3-0.8-0.6-1.3-0.9c2.8-4.2,5.5-8.3,8.3-12.5
		C278.4,396.7,278.8,397,279.3,397.4"/>
	<path class="st14" d="M193.2,365.9c1.3,0.3,2.3,0.3,2.9,0.7c1.6,1.1,3,2.3,4.5,3.5c-0.6,0.4-1.4,1.1-1.8,1
		C196.4,370.3,192.9,370.6,193.2,365.9"/>
	<path class="st9" d="M126.7,702.9c-0.2-2.2-0.5-4.4-0.8-7.4c5,2.2,5,2.2,2.5,7.1C127.9,702.7,127.3,702.8,126.7,702.9"/>
	<path class="st2" d="M337.3,116.3c0.3-3.1,1.9-13.5,2.2-16.6c0.6,0.1,1.2,0.1,1.8,0.2c1.8,3.3-1.9,13.6-2.6,16.7
		C338.2,116.4,337.7,116.3,337.3,116.3"/>
	<path class="st1" d="M267.2,368.6c-3-1-5.9-1.9-8.9-2.9c-5-1.6-10-3.1-14.8-4.9c-1.3-0.5-2.1-2.1-3.1-3.2c1.3,0.1,2.8-0.1,4,0.3
		c6.8,2.3,13.5,4.7,20.2,7.2c1.2,0.4,2.2,1.3,3.2,1.9C267.7,367.4,267.5,368,267.2,368.6"/>
	<path class="st1" d="M356.8,358c-1.8,1.4-3.6,3-5.5,4.3c-4.9,3-9.9,5.8-14.7,8.8c-2.9,1.8-3.3,1.8-6.3-1.7
		c8.5-4.7,16-10.8,25.4-13.5C356,356.5,356.4,357.2,356.8,358"/>
	<path class="st1" d="M263.7,235.4c-4.6,0.2-9.1,0.4-13.7,0.6c3.3-4.9,9.7-5.4,13.7-2.5L263.7,235.4z"/>
	<path class="st1" d="M304.9,719.6c-1.8-0.5-3.5-1.1-5.3-1.6c0-0.7,0.1-1.3,0.1-2c3.1,0,6.2-0.2,9.2,0.2c0.6,0.1,1.6,2.7,1.2,3.4
		c-1.5,2.6-3.5,4.6-0.2,7.4c0.7,0.6-0.3,3-0.5,4.9c6.2,0,7.2,3,4.7,7c1.8,2,4.4,3.8,4.2,5c-1,4.8-1.5,10-4.6,14
		c-0.6-0.2-1.1-0.3-1.7-0.5c0.8-4.3,1.7-8.6,2.6-13.2c-1.6-0.2-3-0.3-4.9-0.5c0.3-2.5,0.6-4.9,1-7.8c-2-0.4-4-0.8-6-1.2
		c-0.4-4.9-4.4-9.9,1.8-14.6C306,719.9,305.4,719.7,304.9,719.6"/>
	<path class="st1" d="M298.5,180c-0.6-6-1.2-11.9-1.9-17.9c0.5,0,1-0.1,1.4-0.1c0.6,6,1.2,11.9,1.9,17.9
		C299.4,179.9,298.9,180,298.5,180"/>
	<path class="st1" d="M308.7,171.4l1.3-15c0.5,0,1,0.1,1.5,0.1c-0.4,5-0.9,10-1.3,15C309.7,171.5,309.2,171.4,308.7,171.4"/>
	<path class="st5" d="M330.4,96.9l-14.5,15.3c0,0,9.1,7.3,14-0.6C331.9,107.7,337.6,97.5,330.4,96.9"/>
	<path class="st5" d="M300.2,96.9l-14.5,15.3c0,0,9.1,7.3,14-0.6C301.7,107.7,312.2,93.5,300.2,96.9"/>
	<path class="st12" d="M245.5,439.1c1.8,0,9.8,1.8,15.8,1.3c2.9-0.3,4.4-6.3,5.3-7.2c9.8-10.3,26.4-14.9,36.9-5.5
		c8.6-9.2,24.8-13.7,24.8-13.7s8.6,27.1,13.1,34.8c0,0,6.1-4.4,7-5.2c1.1-2.3-17.3-48.9-17.3-48.9l-27.6,13.2l-35.5,6.8l-9,16.6
		l-14.6-2.2L245.5,439.1z"/>
	<path class="st1" d="M213.9,212c14.1-8,28.1-16.1,42.5-24.5c-2.8-4.2-5.7-8.5-8.6-12.8c-4.1-6-4-6.3,1.4-11.4
		c9.1-8.5,18.1-17,27.4-25.4c2.2-2,2.6-3.6,0.7-5.7c-0.1-0.1-2.1-6.4-2.1-6.5c-2.2-5.5-8.8-10-8-20.6c0.4-4.7,0.1-8.8,5.8-10.4
		c1.1-0.3,2.4-2.3,2.5-3.6c0.8-12.6,6.3-22.7,15.6-31.2c1.2-1,0.4-4.3,0.5-6.5c2.4,0.4,3.6,7.3,7.2,1.3c1.9,0.6,3.7,1.4,5.6,1.7
		c0.4,0.1,1.5-1.7,1.5-2.6c0.1-5.8,0.1-11.7,0.1-18.4c-4.3,0.9-8.2,1.7-12.2,2.5c1.8,6.1,3.5,11.5,5.1,16.9
		c-2.7-5.1-5.3-10.2-8-15.3c-3.6,1.3-4.2,3.3-2.4,6.5c1.1,1.9,1.9,4,2.7,6c0.2,0.5,0.4,1,0.6,1.5c-2.2-3.3-5.1-6.4-6.3-10.1
		c-0.6-1.7,1.5-5.5,3.3-6.5c10.7-5.7,22.4-5.5,33.9-3.2c5.3,1,10.6,3.8,12,9.7c1.4,6.2-2.9,10.3-6.9,14.3c-1.4,1.4-2.2,3.2-3.3,4.9
		c-2.5-0.8-3.2-2.2-1.3-4.3c1.9-2,3.9-4,5.9-5.9c2.8-2.7,4.7-6.2,2.7-9.6c-1.6-2.7-4.9-4.3-8.6-7.3c-3.9,14.9-7.4,27.9-10.8,40.9
		c8-1.5,12.8-7.2,12-13.9c5.9,2.4,8.4,7.7,10.4,13c2,5.3,3,11,4.5,16.6c0.3,1.2,0.5,3.1,1.4,3.5c5.8,2.6,4.8,7.2,3.6,11.7
		c-0.8,2.8-5.2,14.7-6.5,17.4c-0.4,0.8-1.9,1.1-2.8,1.5c-1.8,4.8-0.5,0.9-2.1,6.2c-0.4,1.4,0.1,3.6,1,4.8
		c7.1,9.4,14.2,18.8,21.8,27.8c3.3,3.9,3.4,6.9,0.2,10.7c-2.3,2.7-3.9,5.9-6,9.2c7.3,4.8,14.2,9.2,21,13.7
		c7.5,4.9,15.1,9.7,22.4,14.9c1.7,1.2,2.7,3.7,3.2,5.9c4.6,17.8,7.6,35.9,8,54.3c0.3,12,0.8,23.9,1,35.9c0,2.9-1.1,5.8-0.9,8.7
		c0.2,3.7,0.9,7.4,2,10.9c1.3,4.4,0.6,7.4-3,10.8c-7.2,6.7-13.5,14.2-20.3,21.3c-2.7,2.8-5.8,5.2-8.6,8c-2,2.1-2.3,4.5-0.8,7.1
		c5.7,9.9,11.3,20,17.1,29.8c2,3.3,2.6,4.9-1.5,7.6c-11.2,7.4-22.1,15.3-32.5,23.8c-3,2.4-4,7.4-5.7,11.4
		c-5.6,13.2-10.7,26.6-16.6,39.7c-2.5,5.5-6.7,10.1-9.4,15.6c-1.6,3.2-2.3,7.1-2.4,10.8c-0.4,8.1-3,15.4-6.6,22.5
		c-5.7,11.4-11.4,22.8-16.9,34.3c-1,2.1-1.6,4.7-1.5,7c0.7,11.9,1.5,23.8,2.6,35.7c1.3,14.5,2.9,28.9,4.3,43.4
		c0.1,1.1,0.3,2.5-0.2,3.4c-4,7.7-0.5,14.6,2,21.8c1.4,4,1.9,8.3,2.6,12.5c1.7,11.7,8.9,20.5,15.6,29.6c6.6,8.9,9.4,19,6.7,30.1
		c-1.9,7.7-7.8,13.2-14.3,13.7c-6.9,0.5-13.6-3.9-16.7-11.3c-4.8-11.5-7-23.5-7.8-35.8c-0.7-12-3.5-23.6-7.8-34.8
		c-0.4-1.1-1-2.9-0.5-3.7c3.9-6,1.2-10.2-3.2-14.4c-1.3-1.2-1.9-3.4-2.3-5.3c-4.9-22.9-9.9-45.8-14.6-68.7c-1.7-8-3.6-16-4.2-24.1
		c-0.6-8.9,0.6-18,0.3-27c-0.2-5.3-1-10.7-2.8-15.7c-6.4-17.7-10.3-35.9-12.2-54.5c-1.4-13.2-1.6-26.4-2.5-39.6
		c-0.1-1.6-1-3.9-2.2-4.4c-9.9-4.2-20-8.1-30-12.1c-0.4-0.2-0.9,0-1.3,0c-1.1,7.9,6,17.5-5.7,23.1c0.6,4,0.9,8.3,1.9,12.3
		c4.7,19.1,9.3,38.1,14.4,57.1c4.7,17.5,10.1,34.9,15.1,52.3c2.2,7.8,2.2,7.8-5.7,8.5c-13.1,1.3-26.1,2.7-39.2,3.8
		c-3.6,0.3-4.9,1.7-4.9,5.6c0.2,15.3,0.6,30.7-0.2,45.9c-0.8,14.8-1.9,29.8-4.8,44.4c-2.5,12.4-7.6,24.3-12.1,36.2
		c-2.1,5.6-5.1,10.9-8.3,16c-3.3,5.2-5.1,5-10,1.6c-6.8-4.8-14.1-8.9-20.8-13.7c-4.1-3-8.2-6.5-11.1-10.7c-1.5-2.2-1-6.4-0.1-9.3
		c3.4-11,7-21.9,11.1-32.6c6.3-16.4,8.1-33.6,9.7-50.9c1.6-17.4,2.8-34.9,4.7-52.3c2.1-19.5,3.9-39.1,7.3-58.3
		c3.7-20.7,12.8-39.4,23.4-57.5c4.1-7.1,8.2-14,14.9-19.3c1.7-1.4,1-6.4,0.6-9.6c-0.8-6.2-2.9-12.4-3.2-18.6
		c-0.2-4.4,1.7-8.8,2.5-13.3c0.3-2-0.1-4.2-0.1-6.3c0-3,0-6,0.3-9c0.6-7.2,1.1-14.3,2-21.5c0.8-6.9,1.7-13.9,3.1-20.7
		c0.6-2.9,0.6-4.4-2.4-5.7c-3.9-1.7-5.6-3.4-4.3-9.1c4.9-21.2,8.2-42.7,12.4-64.1c1.7-8.6,2.3-17.7,8.7-24.7 M198.8,341.5
		c0,0-1.5,7.3-1.7,11.2c-0.4-0.1-0.8-0.2-1.2-0.3v-9.1c-0.5,0-1.1,0-1.6,0c0,3.1,0.5,6.3-0.1,9.3c-1.2,6.7,0.4,11.1,9,11.8
		c1.1-2.4,3.1-5.4,3.4-8.5c0.1-1.2-3.4-2.9-5.7-4.7c1.4-0.2,2.3-0.6,3.1-0.4c3.6,1.2,5.3-0.2,6.4-3.6c1.3-4.2,3.1-8.2,4.7-12.3
		c2.8-8.5,5.5-8.3-1.9-9.8c0.1,1.6-1.8,6.5-1.8,6.5c0.8,1.1,3.2,2.3,3.8,3.4c-1.7-0.6-3.3-1.1-5.2-1.8c-0.8,2.2-1.4,4-2.3,6.3
		l-0.8-0.2c-0.3-1.5,1.8-9.2-5-10.8 M258.6,429.2c3.1-9.4,6.1-18.4,9.1-27.3c4.7-14.2,10.5-28.2,13.8-42.8
		c2.4-10.6,2.1-22.1,1.9-33.1c-0.1-6.2-2.9-12.4-4.1-18.6c-1.5-7.6-0.8-15.7-5.8-22.5c-6.2-8.6-11.9-17.7-18.5-26
		c-4-5-9.2-9.2-14.2-13.4c-7-5.9-7.1-5.9-2.1-13.8c0.5-0.8,1.2-1.6,1.7-2.4c6.4-10.7,12.8-21.3,19-32.1c0.8-1.4,0.6-3.5,0.8-5.2
		c-0.5-0.2-1-0.5-1.5-0.7c-13.8,8-27.7,15.9-41.4,24.1c-1.4,0.8-2.7,3.4-2.5,5c2,23.7,6.7,47,12.9,69.9c2.7,10,5.8,19.9,8.6,29.9
		c1.4,5.2,2.7,10.4,3.8,15.6c0.5,2.2,1,4.9,0.2,6.8c-6.3,13.7-13,27.1-19.5,40.7c-4.4,9.1-8.7,18.3-13.4,28.2
		C224.4,417.6,240,426.4,258.6,429.2 M348.7,439.1c12.4-9.3,23.8-18,35.3-26.4c3.1-2.3,3.5-4.1,1.7-7.6
		c-10.3-19.2-20.4-38.4-30.5-57.7c-0.8-1.6-1.4-3.8-1.1-5.5c3-14.6,6-29.1,9.6-43.6c3-12,6.3-24,10.1-35.8
		c4.5-14.1,9.6-28.1,14.6-42.1c1-2.8,0.4-4.6-2-6.2c-4.6-3.1-9-6.4-13.6-9.5c-8.4-5.6-16.9-11.1-25.5-16.8
		c-2.5,3.7-4.7,6.9-7.1,10.5c8.2,10.5,16.4,21,24.6,31.5c-5.7,6.1-11.4,11.9-16.8,18c-11.1,12.4-21.2,25.5-24.1,42.5
		c-1.6,9.5-1.6,19.2-2.7,28.8c-2.8,25.3,0.3,49.6,11.1,72.8c2.8,6,4.9,12.5,7,18.8C342.4,419.9,345.4,429.2,348.7,439.1 M300,410.1
		c-10,1.3-19.6,2.6-28.6,7c-3.9,1.9-6.5,3.7-7.7,8.3c-2.5,9.4-4.1,10-13.7,7.6c-0.9-0.2-1.8-0.3-3.7-0.6c0.9,11.2,1.6,21.8,2.5,32.4
		c2,22.9,6,45.4,14.2,67c1,2.6,1.3,5.5,1.3,8.3c-0.3,10.4-2,21-1.1,31.3c0.9,11.2,3.7,22.2,6.1,33.3c3.4,16.2,7,32.3,10.8,48.4
		c0.3,1.4,2.3,3.6,3.2,3.5c5.4-0.9,10.7-2.4,14.8-3.4c-1.1-16.7-2.2-32.7-3.2-48.7c-1.2-19-2.7-37.9-8.2-56.3
		c-2.2-7.4-2.8-14.6-0.1-22.1c6.6-18.7,12-37.7,13.7-57.6C301.9,449.1,301.7,429.9,300,410.1 M296.9,566.3c5-10.1,10.2-20.1,15-30.2
		c4.2-8.8,7.6-17.8,6.2-27.9c-0.2-1.4,0.6-3.2,1.5-4.4c12-15.8,20-33.7,26.5-52.4c1.6-4.5,2.6-9-1.3-13.1c-0.7-0.8-0.9-2.1-1.3-3.2
		c-4.5-12.7-9-25.4-13.5-38c-8.7,4.3-16.9,8.4-24.4,12.2c0,10.7-0.1,21.5,0,32.3c0.2,25.6-2.4,51.1-11.6,74.9
		C287.1,534.1,291.2,549.7,296.9,566.3 M304.7,334.9c0.6,0,1.1,0.1,1.7,0.1v41.6c7.7,0.9,6.1-6,8.6-10.6c0.9,2.5,1.5,3.9,2,5.3
		c0.5,0,1.1,0.1,1.6,0.1c0.3-1.7,1-3.4,0.8-5c-1-9.9-2.5-19.8-3.1-29.7c-0.5-9.4-0.1-18.9-0.1-28.5c-4.4-0.2-8.1,4.9-13.3,1.3
		c2.3-2.7,4.6-4.9,6.2-7.4c3.7-5.7,9.2-11.3,10.3-17.6c2.2-12.1,2-24.7,2.4-37.1c0.2-4.9-1-5.2-6.1-3.5c-0.6,5,2.2,10.3-0.3,14
		c-4.9,0-8.5,0.1-12,0c-2.9-0.2-4.1,0.6-4.1,3.8c0,9.9-0.2,19.9-0.6,29.8c-0.1,2.8-1.4,5.5-2.1,8.3c-4.1-2.4-1.8-6.1-1.7-9.2
		c0.1-9.5,0.8-19,1-28.5c0-1.1-1.2-2.2-1.9-3.4c-0.7,1.2-2,2.3-2.1,3.5c-0.4,9.3-0.6,18.7-0.9,28c0,1.3-0.4,2.6-0.7,3.9
		c-0.6,0-1.1,0-1.7,0.1c-0.3-1.7-1-3.4-1-5c0.2-8.8,0.7-17.6,0.8-26.4c0-1.4-1.3-2.8-1.9-4.2c-0.9,1.4-2.3,2.6-2.5,4.1
		c-0.9,5.5,2.3,11.8-3.2,16.4c-0.3,0.2-0.2,0.9-0.1,1.4c1.6,11.3,2.5,22.9,5.1,34c2.2,9.2,3.3,18.3,2.6,27.6
		c-1.1,14.6-3.9,28.9-9.2,42.6c-0.9,2.2-1.6,4.5-2.6,7.4c5.9-2.4,9.9-8.1,17.2-5.9c-6.4,8.3-12.4,16-19,24.5
		c10.2-2.1,19.1-3.9,28-5.7c1.2-5,0.8-8.9-6.1-10.2c8.7-1.4,6.7-7.2,6.7-12c0.1-10.7,0.1-21.3,0.3-32
		C303.7,345.3,304.3,340.1,304.7,334.9 M198.8,440.5c-6.8,0-10.7,2.7-11.4,10.2c-1.7,17.9-3.4,35.7-3.9,53.7
		c-0.5,18.8,0.4,37.7,0.8,56.5c0.1,3.7,0.9,7.3,1.3,10.8c15.7-1.6,30.9-3.2,45.8-4.7C220.5,524.5,209.6,482.6,198.8,440.5
		 M275.2,277.5c-3.7-23-6.2-46.8-3.5-70.7c2.1-18.5,4.9-36.7,16.1-52.4c0.6-0.9,0.8-2.7,0.3-3.6c-2.1-3.6-4.5-7-6.9-10.7
		c-9.9,9.2-19.5,17.9-29,26.7c-2.1,1.9-2.6,3.7-0.4,6.3c2.8,3.4,4.5,7.9,7.7,10.7c8.4,7.2,6.8,14,1.4,22.1
		c-7.1,10.9-13.3,22.4-19.3,32.5C253.1,251.6,264.2,264.6,275.2,277.5 M328.9,263.7c9.5-11.5,19.4-23.4,29.3-35.2
		c-6.5-8.8-13-17.8-19.8-26.6c-2.6-3.3-2.5-6.1-0.2-9.3c3.3-4.5,6.4-9.2,9.7-13.7c6.8-9.2,6.7-9.1-0.1-17.7
		c-6.2-7.8-12.2-15.7-18.3-23.5c-3.9,2.9-6,6.2-5.3,11c0.6,4.2,0.6,8.4,0.7,12.6c0.7,24.2,1.4,48.3,2.2,72.5c0.1,2.7,1.5,5.3,1.6,8
		C329,249.3,328.9,256.8,328.9,263.7 M145.8,628.6c0.5,0,0.9,0,1.4,0c0.1,1.6,0.6,3.3,0.3,4.9c-1.5,7.7-3.2,15.2-4.7,22.9
		c-0.4,2-0.1,4.2-0.1,6.2c-2.5,2.6-4,5.8-5.7,8.8c-2.4,4.3-0.9,6.7,3.6,8c1.1-2.3,2.2-4.4,3.3-6.6c1.8,4.6-3,9.6,2.2,13.6
		c-1.5-0.4-3-0.8-4.8-1.3c-1.2,2.7-2.5,5.2-3.3,7.8c-0.5,1.7-1.1,4.4-0.2,5.4c1.3,1.4,3.9,1.7,5.5,2.4c2.4,2.8,4.7,5.5,6.9,8.1
		c-8.8-1-8.8-1-9.9,3.8c2.9,1.7,5.9,3.5,8.9,5.3c9.4-13.4,14.8-69.3,8.2-83.4c-0.7,3.4-1.3,6.4-1.9,9.4c-0.9,4.8-1.8,5.8-5.8,6.6
		c4.6-13.7,4.1-27.5,2.4-41.3c-1.7-13.8-3.6-27.5-5.4-41.3c-1.2,3.7-1.8,7.4-2.1,11.1c-1.8,19.4-3.5,38.8-5.5,58.2
		c-0.4,3.6,0.5,5.1,3.9,5.5C144.1,638,144.9,633.3,145.8,628.6 M279.2,100.4c0,6.3,0,13.8,0,21.4c0,1.8-0.5,3.9,0.2,5.3
		c3.9,7.7,8.1,15.2,12.3,22.7c0.3,0.6,1.1,1.2,1.7,1.4c9,2.6,20.8-0.7,26.7-8.1c1.1-1.4,1.8-2.2,3.6-4c9.5-9.8,11.6-21.5,11.1-35.5
		c-1.5,3.8-2.1,6.8-3.7,9.1c-1.2,1.9-3.5,3.9-5.5,4.2c-7.7,1.2-11-1.3-13.3-8.7c-0.9-2.8-2.2-5.4-3.8-8.9c-2.8,4.9-5.1,8.5-7,12.3
		c-2.5,4.8-7.1,5.6-11.3,4.9c-2.7-0.4-5.7-3.1-7.2-5.6C280.7,107.5,280.1,103.3,279.2,100.4 M392.5,223.5c-0.4,0-0.8,0-1.2,0
		c-4.6,13.8-9.3,27.5-13.7,41.4c-2.7,8.4-4.2,17.2-7.4,25.4c-3.1,8-1.9,14.9,2,22.3c6.1-3.9,11.4-8.8,17.7-11.1
		c8.9-3.3,11.1-8.4,9.9-17.3c-2.2-16.4-3.3-32.9-5-49.3C394.5,231,393.3,227.3,392.5,223.5 M224.4,309c0.6-0.3,1.2-0.5,1.8-0.8
		c-0.8-14.4-6.7-27.9-9.3-41.9c-2.7-14.2-4.9-28.4-7.5-43.5c-1.6,4.2-3.5,7.7-4.2,11.4c-3.2,17-6.1,34.1-9,51.2
		c-0.2,1.4,0.1,3.7,1,4.4C206.1,296.3,215.3,302.6,224.4,309 M208,398.9c0.7-0.9,1.2-1.4,1.5-1.9c8.2-16.9,16.4-33.9,24.4-50.9
		c1.3-2.7,2.7-6.2,2.1-8.8c-1.9-7.7-4.9-15.1-7.5-22.9c-3,5.9-6.1,11.1-8.5,16.7c-3.4,7.9-6.5,16.1-9.5,24.2
		c-2.4,6.5-4.5,13.1-6.5,19.7C201.3,383.5,206.2,390.7,208,398.9 M309.1,709.5v3.8c-0.5,0.2-1,0.4-1.4,0.6c-1-1.7-2.1-3.5-3.2-5.2
		c-1.2-1.8-3.2-4.3-4.6-1.3c-2.1,4.4-4.3,9.6-3.8,14.1c1.3,11.1,4,22.1,6.6,33c1.5,6.4,7.8,11.1,13,10.8c5.6-0.2,10.4-4.6,12.1-11.2
		c2.4-9.7-0.2-18.5-5.6-26.5C318.2,721.6,313.7,715.8,309.1,709.5 M161.8,542.2c6.4,1.2,6.6,1,6.2-4.8c-0.5-7.3-0.9-14.7-1.4-22.3
		c-1.1-0.4-2.5-0.9-4.2-1.6c5.3-2.9,5.3-2.9,5-9.5c-0.1-1.6,0.2-3.3,0.3-4.9c0.6-8.1,1.2-16.2,1.8-25.2c-3.3,0.4-7.6-0.2-8.2,1.1
		c-2.9,5.7-6,11.5-5.5,18.2c2.1,0.7,3.7,1.3,5.8,2c-7.9,2.2-7.9,2.2-9,11.1c-0.1,1-0.4,1.9-0.5,2.9c-0.8,11.3-1.6,22.6-2.4,34.3
		c3.2-0.2,5.1-0.3,8-0.4v-18.4c0.8-0.1,1.6-0.1,2.4-0.2C160.6,530.4,161.2,536.2,161.8,542.2 M302.9,190.4
		c4.3-6.9,7.2-13.3,11.7-18.3c6.1-6.8,6.9-17.7,6.1-26.2c-5.4,5-11.3,8.8-18.8,8.9c-2.4,0-7.2-0.8-9.6-0.4
		c-3.6,0.5-6.4,10.6-4.5,13.6C292.4,175.2,297.4,182.2,302.9,190.4 M366.5,310.4c-0.4,0.1-0.8,0.1-1.1,0.2
		c-2.4,10.8-4.8,21.5-7.1,32.3c-0.1,0.4,0,1,0.2,1.4c3.5,7.7,7.1,15.3,10.1,21.7c9.1-8.1,17.8-15.9,26.6-23.7
		c-0.3-0.7-0.6-1.4-0.9-2.1c-1.2,0.2-2.7,0.1-3.5,0.8c-3.3,3.1-6.3,6.6-9.6,9.8c-1.2,1.2-2.7,2-4,3c3.8-7.7,3.8-7.7,1-10.1
		c-2.5,2-5.1,4.1-7.6,6.2c-0.3-0.4-0.6-0.7-0.9-1.1c2.3-3.1,4.6-6.2,7-9.3c-0.6-0.4-1.2-0.8-1.8-1.2c-0.9,1.4-1.7,2.9-2.7,4.2
		c-0.8,0.9-2,1.5-3.1,2.3c-0.1-1.4-0.6-3-0.2-4.2c0.7-2,2.2-3.6,3.2-5.5c0.5-1,1.4-2.2,1.2-3C371,324.8,368.7,317.6,366.5,310.4
		 M306.2,85.1c-1.6-5.3-5.8-5.1-9.1-4.9c-8.7,0.5-13.7,6.5-18.7,13.8c18.8,0.6,36.6,1.2,55.2,1.8c-3.6-8-9.2-12.1-16.3-14.5
		C313,79.9,308.5,78.2,306.2,85.1 M175.7,585.6c5.1-0.1,5.9-2.5,5.7-6.2c-1-16-1.8-32.1-2.5-48.1c-0.3-5.6,0-11.3,0-16.9
		c-8,0.2-8.3,0.2-8.1,6.7c0.4,11.7,0.9,23.5,1.8,35.2C173.3,566,174.6,575.7,175.7,585.6 M176.1,618.5c-0.6-0.1-1.2-0.2-1.8-0.2
		c-0.7-9.1-1.4-18.1-2.1-27c-6.3-1.2-6.8-0.6-5.9,4.7c1.6,10,3.1,20,4.5,30.1c0.8,5.6,1.1,11.3,1.6,17.2c3.8-1,7.6-0.5,7.8-5.7
		c0.4-14.7,1.1-29.5,1.6-44.2c0.1-1.7-0.6-3.4-1-5.1c-0.5-0.2-1-0.4-1.6-0.6c-0.9,1.4-2.6,2.8-2.6,4.2c0,7.2,0.5,14.4,0.6,21.6
		C177.3,615.1,176.5,616.8,176.1,618.5 M194.4,293.4c-0.9,5-1.8,8.9-2.3,13c-0.2,1.4,0.4,3.6,1.4,4.2c8.2,4.6,16.6,9,25.4,13.6
		c1.7-3.9,3.1-7.1,4.6-10.4C213.9,306.9,204.5,300.4,194.4,293.4 M312.5,228.5c0.6,0,1.2-0.1,1.8-0.1c0.5,3.5,1,7.1,1.6,10.8
		c2-0.2,3.6-0.4,4.9-0.6v-30.5c-4.7,5.1-8.7,9-12.1,13.3c-2.9,3.8-5.7,5.1-9.7,1.1c-0.3,0.3-0.6,0.7-0.9,1c1,2.4,2.1,4.7,3.2,7.2
		c-4,2.5-1.4,6.7-1.5,10.9c4.4-0.8,8.4-1.5,12.8-2.3V228.5z M400.6,301.5c-0.6-0.3-1.2-0.6-1.7-0.9c-6.1,4-12.2,8-18.5,11.8
		c-7.5,4.6-7.6,4.5-5,12.9c0.1,0.4,0.5,0.8,0.8,1.4c7.1-3.1,14.1-6.1,21-9.3c1.1-0.5,2.3-1.8,2.5-2.8
		C400.2,310.1,400.3,305.8,400.6,301.5 M167.6,544.7c-3.9-0.5-6.5,0.6-6.2,5.3c0.7,11.1,1.4,22.2,2.1,33.4c0.2,2.9,0.3,5,4.4,4.6
		c3.9-0.4,4.6-2.1,4.1-5.5C170.5,570,169.1,557.7,167.6,544.7 M155.3,718.8c0.5,0.2,1,0.3,1.4,0.5c7.1-8.8,8.9-19.7,12.1-30.1
		c-1,1.8-1.9,3.6-2.9,5.3c0.1-7.2,1-14.2,1.6-21.3c0.6-7.5,0.9-15,1.2-22.5c0-1-1.3-2.1-2-3.2c-0.8,1.2-1.7,2.3-2.2,3.6
		c-0.4,1-0.1,2.3,0,3.4c0.3,15.6-0.9,31-5.3,46.1C157.5,706.6,156.6,712.8,155.3,718.8 M297.8,58.6c-1.8,1.2-4.3,2.4-6.3,4.2
		c-1.1,0.9-2.1,2.8-2,4.1c0.3,3.5,8.5,11,12.6,11.8c0.5-1.4,0.7-2.6,1.4-4.7c0.7,2.4,1.4,4,1.8,5.6c0.7,0.1,1.3,0.1,2,0.2
		c1.6-4.8,3.2-9.7,4.9-14.4c2.6-7,2.4-7.3-5.2-7.4c-0.8,0-1.6,0-2.5,0c-3.5,0-4.8,1.9-4.2,5c0.5,2.7,3.5,12,4.3,14.6
		c-0.5,0.1-0.9,0.3-1.4,0.4C302.2,74.1,299,63.2,297.8,58.6 M178,512.2c0.6-19.4,1.1-38.3,1.7-57.1c-4.8,1.4-10.5,41.2-7.8,56.9
		C173.8,512,175.7,512.1,178,512.2 M284.3,171.4c-7,15.9-5.2,17.7,9,29.7c2-1.6,4.3-2.8,5.8-4.7c0.9-1.1,1.4-3.7,0.7-4.6
		C294.9,185,289.8,178.5,284.3,171.4 M190.4,421.5c-14,14.3-20.7,31.8-28.8,49.7c3.4,0.2,5.8,0.4,8.1,0.5c-0.4-0.4-0.8-0.7-1.3-1.1
		c4.1-10.2,8-20.6,12.4-30.7c0.9-2,3-3.9,5-5C191.2,432.1,192.6,429.2,190.4,421.5 M282.7,97.5c1.2,4.9,1.7,8.7,3,12.4
		c1.3,3.8,5.5,5.2,8.8,2.9c5.3-3.7,8.3-9.2,10.6-15.3H282.7z M320.3,171.2c-0.9,0.5-1.5,0.6-1.8,0.9c-2.8,4.4-5.5,8.8-8.3,13.2
		c-5.2,8-5.1,9.4,1.2,16.8C322.3,194.2,321.3,182.9,320.3,171.2 M311.9,98.4c1.3,3.9,2.5,7.9,4.1,11.8c1.4,3.4,9,4.5,10.6,1.5
		c2.2-3.9,3.7-8.1,6.1-13.3H311.9z M154.6,592.7c1,7.7,2,15.5,2.9,23.2c0.7,6.1,2.5,7.4,9.2,5.7c-1.6-8.1-3.4-16.2-4.6-24.4
		C161.4,592.1,159.2,590.8,154.6,592.7 M194.8,405.2c0.9-0.8,1.3-1,1.5-1.4c0.3-0.6,0.7-1.2,0.7-1.8c0-8.1,0-16.2,3.4-23.9
		c0.2-0.5-2.2-2.7-3.7-3.3c-0.8-0.4-2.8,0.5-3.3,1.4c-1.6,2.8-3,5.8-4.1,8.8C186.4,393,192.7,398.2,194.8,405.2 M158.6,577.4
		c-0.5-10.3-0.9-20.5-1.4-30.7c-6.9-0.1-7-0.1-6.7,6.1c0.3,6.7,1,13.4,1.2,20.1C151.8,577.2,153.4,579,158.6,577.4 M301,219v-19.5
		c-1.5,1.7-2.5,2.3-3,3.3c-2.1,4.8-4.5,4.1-7.7,0.9c-3.6-3.7-7.5-7.2-11.3-10.7C277,197.9,288.3,211.2,301,219 M291.4,683.9
		c6.7,0.8,9.5-0.4,9.2-4c-0.4-4.7-1.1-9.3-1.7-14.7c-4,0.9-7.5,1.6-11.7,2.6C288.7,673.5,290.1,678.8,291.4,683.9 M314.8,56.9
		c1.9-6.6,3.8-13.2,6-20.7c-4.2-0.2-7.7-0.4-11.3-0.5c-0.5,5.4-0.8,10.1-1.3,14.8C307.7,56.5,308,56.9,314.8,56.9 M305.5,405.3
		c8.1-4.4,15.3-8.2,22.5-12.1c0.1-0.7,0.1-1.4,0.2-2.1c-1.7-1.1-3.5-3-5.2-2.9c-3,0.1-6.7,0.6-5.8,5.6c0.3,1.5-0.6,3.2-1,4.7
		c-1.4-1.3-1.7-2.5-1.9-3.7c-0.2-1.2-0.3-2.5-0.4-3.8C306.2,392.9,305.9,393.4,305.5,405.3 M379.3,337.2c2.9-2.7,5.9-5.5,8.7-8.1
		c1.7,2.1,3,3.7,4.8,6c1.3-1.9,2.1-3.2,3-4.4c0.6-0.8,1.2-1.9,2.1-2.3c4.3-2.1,4.6-3.6,1.3-7.9c-5.6,2.6-11.3,5.1-16.8,7.9
		C378.8,330.3,377.4,334.5,379.3,337.2 M135,657.7c4.7,0,4.7,0,6-5c0.2-1,0.4-2,0.8-2.8c1.2-2.6,0.6-4.8-2.1-5.3
		c-1-0.2-3,2.1-3.5,3.6c-2.2,6.8-4.2,13.7-5.9,20.6c-0.4,1.4,0.6,3.2,1.1,5.7C137.3,667.3,138.2,662,135,657.7 M178.8,644
		c-2.8,1.6-6.1,2.5-6.2,3.7c-0.5,7.6-0.2,15.2-0.2,22.8C177.1,669.8,178.8,663.4,178.8,644 M200.5,389.4c0,3.3,0.6,6.7-0.1,9.9
		c-1.3,6-3.5,11.9-4.9,17.9c-1.5,6.4-2.3,12.8,0.2,19.2c0.7-2.9,0.3-5.8,0.8-8.6c0.9-5.4,1-11.5,3.6-16
		C204.8,404.1,203.9,397,200.5,389.4 M305.8,198.4c-0.3,0.1-0.6,0.2-0.9,0.4v19.7c5.8-5.8,12.3-10.3,15.1-17.8
		c-2.1,1.4-3.6,3.3-5.2,5.2c-2.4,2.9-4.4,2.4-5.9-0.9C307.9,202.7,306.8,200.5,305.8,198.4 M313.1,243.5c-4.4,0.3-8,0.3-11.4,1
		c-3.9,0.7-2.6,4.1-2.3,6.4c0.2,1.2,1.8,3.2,2.9,3.3c3.1,0.3,6.3-0.2,9.9-0.5C312.5,250.4,312.8,247.2,313.1,243.5 M318.2,79.5
		c1,0.6,3.1,2.4,5.3,2.6c2.1,0.2,4.6-0.8,6.5-2c1.1-0.7,2.4-2.9,2.1-3.8c-1.2-2.8-3.1-5.3-4.7-8c0.1,0.6-1,1.7-1,1.7
		C323.1,73.2,321.3,76.5,318.2,79.5 M288.1,254.1c0-6.4,0.1-12.4-0.1-18.4c0-0.9-1.4-1.8-2.1-2.7c-0.7,0.7-2.1,1.3-2.1,2
		c-0.4,5.2-0.8,10.4-0.8,15.6C283,253.5,284.4,255.6,288.1,254.1 M164.5,646.5c1.7-2.1,3.8-3.5,3.8-4.8c-0.2-5.7-1-11.3-1.7-17.5
		c-2.4,0.7-4.2,1.2-5.9,1.8C161.8,632.4,163,638.4,164.5,646.5 M295.6,232.3c-3.2-0.4-4.7,0.5-4.6,3.6c0.2,5.2,0.3,10.5,0.7,15.7
		c0.1,0.9,1.3,1.8,1.9,2.7c0.7-0.9,1.9-1.8,1.9-2.7C295.7,245.4,295.6,239,295.6,232.3 M275.5,232.4c0.4,6.8,0.8,13.5,1.3,20.1
		c0.1,0.8,1.3,1.5,1.9,2.2c0.6-0.8,1.6-1.7,1.6-2.5c0.2-5.4,0.1-10.7,0.3-16.1C280.8,233.1,279.6,231.8,275.5,232.4 M273.6,118.7
		c0.7-0.1,1.4-0.1,2.1-0.2c-0.4-6.2-0.7-12.4-1.2-18.6c-0.1-0.6-1.6-1.8-2-1.6c-0.9,0.5-2,1.4-2.2,2.3
		C269.2,107.1,271.4,112.9,273.6,118.7 M299.5,702.2l-1.2-0.4l-3-5.8l-3.4,1.1c1.5,4.9,1.5,5.1,2.7,9.2c2.7-1.6,9.9-4.9,12.7-6.5
		c-0.3-0.8-0.7-1.9-1-2.8c-1.9,0.4-10.8,3.9-12.1,4.2c0.2-0.3,1.3-1,1.3-1s7.2-2.8,6.8-3.8c-0.9-2.4-3.2-7.1-3.7-8.8
		c-0.4,0.1-4.3,1.7-4.8,1.7c0,0.6,0.9,2.8,2,5.3c0,0.1,3.1-1.1,3.2-1c0.1,0.2,0.2,0.5,0.3,0.7c0,0.1-3,1.4-3,1.4
		C297.9,699,299.5,702.2,299.5,702.2 M306.4,390.1c8.4-3.1,8.4-3.1,6.4-12C305.4,380.1,304.8,381.1,306.4,390.1 M133,694.8
		c2.1-4,4.1-7.9,6.4-12.1c-2.1-0.8-3.6-1.3-5-1.8C128.5,688.5,128.1,691.2,133,694.8 M320.9,372.2c-5.6,3.8-5.7,4.4-3.2,13.1
		c6,0.5,6.6-0.2,5.3-5.8C322.4,377.2,321.7,374.9,320.9,372.2 M284,217.9c-0.8,5.8,0.7,7.5,0.5,11.6c1.5-0.8,3.1-2.1,3-3.3
		c-0.2-5.5,4.2-12.2-2.8-16.2c-0.6,0.3-1.2,0.5-1.8,0.8C284.4,213.2,283.9,214.3,284,217.9 M287,68.1c-3,3.7-5.6,7.2-1.6,10.5
		c1.4,1.2,4.8,0,8.4-0.1C291,74.2,289.2,71.4,287,68.1 M154,579.3c-0.3,0.6-0.6,1.2-0.9,1.8c0.3,3.1,0.7,6.3,1,9.4
		c6.9-1.6,7.3-1.9,5.1-8.5C158.7,580.7,155.8,580.2,154,579.3 M276.7,203.4c-0.5,3.4-1.2,6.5-1.4,9.7c-0.1,0.8,1.3,2.4,2.1,2.5
		c1.2,0.1,3.1-0.4,3.7-1.4C282.7,211.6,280.3,205.6,276.7,203.4 M300.1,659c-0.3-0.6-0.5-1.3-0.8-1.9c-5,1.1-10.1,2-15.1,3.3
		c-0.8,0.2-1.2,1.9-1.8,2.9c1,0.2,2,0.7,2.9,0.5c2.4-0.5,4.7-1.3,7.1-2C295,660.9,297.5,659.9,300.1,659 M275.3,218.9
		c0,2.9-0.3,5.5,0.2,7.9c0.2,1.1,2.1,1.8,3.3,2.7c0.7-0.9,1.8-1.8,1.9-2.8c0.3-2.4,0.1-4.8,0.1-7.3
		C279,219.3,277.4,219.1,275.3,218.9 M295.8,228.7c-0.7-4.7,2.7-10-4.6-12.2v12.2H295.8z M206.4,425.5c-0.7-3.9-1.4-7.5-2-11.2
		l-1.2-0.2c-1.2,4.3-2.5,8.6-3.9,13.7C202.3,426.8,204.2,426.2,206.4,425.5 M334.4,80.2c-2.8,1.8-4.6,3-6.6,4.3c2.6,2.8,5,5.4,7.4,8
		c0.5-0.2,0.9-0.5,1.4-0.7C335.9,88.2,335.3,84.7,334.4,80.2 M182.3,453.8c-0.7-8.6,4.5-12.8,9.3-17.2
		C183.3,438.8,177.2,448.7,182.3,453.8 M136.6,710.5c4.1-5.3,3.9-6-2.5-9.9c-1,1.8-2,3.6-3,5.5C133.1,707.7,134.7,709,136.6,710.5
		 M125.1,690c2.2-4.3,4-7.4,5.3-10.7c0.4-1-0.6-2.5-1-3.7c-0.9,0.7-2.2,1.2-2.6,2.1c-1.2,2.5-2.3,5.1-3.1,7.7
		C123.5,686.5,124.4,687.8,125.1,690 M206.1,428.3c-3.3,2.2-8.2,2.4-6.2,8C206.8,435.6,207,435.3,206.1,428.3 M390.3,337
		c-2.4-3-3.9-3.4-6-0.4c-3.1,4.4-3.3,4.2-0.6,6.4C385.9,341.1,388,339.1,390.3,337 M280.3,258.3c-0.7,0-1.3,0-2-0.1
		c-1.6,4.3,0.1,8.4,2,13.8V258.3z M193.2,365.9c-0.3,4.7,3.2,4.4,5.6,5.2c0.4,0.1,1.2-0.6,1.8-1c-1.5-1.2-2.9-2.5-4.5-3.5
		C195.4,366.2,194.5,366.2,193.2,365.9 M126.7,702.9c0.6-0.1,1.2-0.1,1.7-0.2c2.5-4.9,2.5-4.9-2.5-7.1
		C126.2,698.4,126.5,700.7,126.7,702.9"/>
	<path class="st2" d="M338.1,118.7c2.3-5.8,4.5-11.6,3.3-18.1c-0.2-0.9-1.3-1.8-2.2-2.3c-0.3-0.2-1.9,1-2,1.6
		c-0.5,6.2-0.9,12.4-1.2,18.6C336.7,118.6,337.4,118.7,338.1,118.7"/>
	<path class="st5" d="M201.3,319.2c-1,2.6-1.9,5-2.8,7.4c-3.1-0.4-2.9-0.3-2.2-4.9C196.7,318.6,198.1,318.2,201.3,319.2"/>
	<path class="st5" d="M197.5,330.1c-0.5,2.8-0.9,5.4-1.4,8.1c-0.1,0.4-0.8,0.6-1.2,1c-0.3-0.4-0.9-0.9-0.9-1.3
		c0.1-2.2,0.5-4.4,0.7-6.6C194.9,329.9,195.8,329.6,197.5,330.1"/>
	<path class="st5" d="M204,320c1.2,0.5,2.1,0.9,3.1,1.3c-0.5,1.8-1.3,4.8-2,6.4c0,0-2.7-1.3-2.6-2.1
		C202.7,323.8,203.4,322.1,204,320"/>
	<path class="st5" d="M212,323.1c-1,2.6-2,5.3-3.4,8.8c-0.4-4.1-1-7.3,1.6-9.5C210.8,322.6,211.4,322.9,212,323.1"/>
	<path class="st3" d="M300.6,686.8c1.6-1.4,2.6-0.6,3.1,0.8c0.9,2.5,1.5,5.1,2.2,7.7c0.1,0.4-2.1,0.8-2.2,0.4
		C302.5,692.9,301.6,689.9,300.6,686.8"/>
	<path class="st3" d="M292.7,689.7c0.4,1.1,0.9,2,1.2,2.9c0.8,2.2,0.6,2.7-1.9,3c-0.8-1.9-1.8-4.1-1.6-4.8
		C290.5,690.2,291.7,690.2,292.7,689.7"/>
	<path class="st1" d="M293.8,133.5c0.4,0.2,8-0.8,8.7-0.9c0.7-0.2,2.3,1.9,6.2,0.2c0.5-0.2,5.5,1.1,7.9,0.2c0.5,0-0.3,0.6-0.8,1.1
		c-0.5,0.5-2,2.7-5.6,4.2c-3.5,1.5-7,1.4-12.1-0.9C295.4,135.7,293.8,133.5,293.8,133.5"/>
</g>
<g>
	<path d="M1035,539.3c0.9,1.1,1.8,2.1,3.9,3.7c6.2,4.6,13.7,5.9,21.1,5.9c12.4,0,19.2-4.9,19.2-12.3c0-8.4-8.9-9.2-20.1-10.2
		c-14.2-1.3-19-1.7-23.4-5.9c-3.4-3.4-4-7.3-4-10.1c0-17.3,21.3-17.7,26.5-17.7c7.9,0,15.9,1.4,22.5,6.1c2.8,2.1,4.1,3.7,5.7,6.1
		l-7.3,3.2c-1.2-1.3-1.9-2.2-3.3-3.2c-5-3.9-11.3-5.1-17.4-5.1c-4.6,0-10.2,0.7-13.6,2.5c-3.9,2.1-5,5.2-5,7.7
		c0,1.8,0.6,3.4,1.7,4.6c1.9,2.4,4.9,2.9,10.2,3.5c5.1,0.6,10.2,0.9,15.3,1.5c2.4,0.3,4.9,0.6,7.3,1.2c6.1,1.5,13,5.8,13,15.7
		c0,2.5-0.4,6.4-2.9,10.2c-4.4,6.7-13.1,9.6-24.8,9.6c-4.6,0-10.6-0.7-14.6-1.8c-11.6-3.1-15.7-9.5-17.3-12L1035,539.3z"/>
	<path d="M955.8,501.5v22h27.9c4.4,0,10-0.1,13.2-4.6c1.4-2,1.9-4.3,1.9-6.4c0-2.3-0.6-4.6-1.7-6.5c-2.6-4.4-6.6-4.4-10.3-4.5H955.8
		z M947.9,494.2h38.4c5,0.1,11,0.2,15.8,4.9c1.8,1.7,5,5.7,5,13c0,14.5-11.4,16.5-15.2,17.2l20.8,25.6h-10.5l-19.1-24.3h-27.3v24.3
		h-8V494.2z"/>
	<polygon points="868.3,494.2 920.5,494.2 920.5,501.7 876.3,501.7 876.3,519.8 919.3,519.8 919.3,527 876.3,527 876.3,547.4 
		922.5,547.4 922.5,554.9 868.3,554.9 	"/>
	<path d="M789.6,494.2l38.1,43.4c2.7,3.1,3.3,3.8,6,7.4c-0.4-4.3-0.4-5.1-0.5-9v-41.9h7.7v60.7h-7.8l-40-45.5
		c-2.1-2.5-2.7-3.4-4.4-5.6c0.3,4.2,0.4,5.4,0.4,10.5v40.6h-7.7v-60.7H789.6z"/>
	<path d="M702.8,494.2l38.1,43.4c2.7,3.1,3.3,3.8,6,7.4c-0.4-4.3-0.4-5.1-0.5-9v-41.9h7.7v60.7h-7.8l-40-45.5
		c-2.1-2.5-2.7-3.3-4.4-5.6c0.3,4.2,0.4,5.4,0.4,10.5v40.6h-7.7v-60.7H702.8z"/>
	<polygon points="637.5,494.2 615.5,554.9 605.4,554.9 585.3,502.6 585.3,502.6 565.2,554.9 555,554.9 533.1,494.2 542.4,494.2 
		560.3,547.1 581.2,494.2 589.4,494.2 610.3,547.1 628.1,494.2 	"/>
	<rect x="658.9" y="494.2" width="8.2" height="60.7"/>
</g>
</svg>
