<?xml version="1.0" encoding="utf-8"?>
<!-- Generator: Adobe Illustrator 21.1.0, SVG Export Plug-In . SVG Version: 6.00 Build 0)  -->
<svg version="1.1" id="Layer_1" xmlns="http://www.w3.org/2000/svg" xmlns:xlink="http://www.w3.org/1999/xlink" x="0px" y="0px"
	 viewBox="0 0 396 137.3" style="enable-background:new 0 0 396 137.3;" xml:space="preserve">
<style type="text/css">
	.st0{fill:#FCB53B;}
	.st1{fill:#231F20;}
</style>
<path class="st0" d="M207.1,7.3c-0.1,0-0.2,0-0.3,0v0H207.1z"/>
<path class="st0" d="M327.8,55.7c-0.3-0.3-0.9-0.5-1.9-0.5h-10.6L299.8,8.8c-0.2-0.6-0.5-1-0.9-1.2c-0.4-0.2-0.9-0.2-1.7-0.2h-7.1
	c-0.7,0-1.3,0.1-1.7,0.2c-0.4,0.2-0.7,0.6-0.9,1.2l-15.7,46.5h-7.5V9.6c0-1-0.2-1.6-0.5-1.9c-0.3-0.3-1-0.4-2-0.4h-4.4
	c-1,0-1.7,0.1-2,0.4c-0.3,0.3-0.5,0.9-0.5,1.9v35.9l-19-36c-0.5-1-1-1.6-1.5-1.9c-0.4-0.2-1.2-0.3-2.2-0.3h-25.2c-0.1,0-0.2,0-0.3,0
	c-0.8,0-1.4,0.2-1.7,0.4c-0.3,0.3-0.5,0.9-0.5,1.9v45.6H196l-8.3-14.7c6.4-2.1,9.6-7.2,9.6-15.2v-1.5c0-5.8-1.5-10-4.4-12.6
	c-2.9-2.6-7.5-3.9-13.8-3.9h-17c-1.1,0-1.8,0.2-2.1,0.5c-0.3,0.3-0.5,0.9-0.5,1.8v23.9h-13.8c1.6-0.7,3-1.9,4.1-3.5
	c1.5-2.1,2.2-4.5,2.2-7.5v-1c0-4.7-1.5-8.3-4.4-10.7c-2.9-2.4-7.2-3.6-12.9-3.6h-18.3c-1,0-1.7,0.1-2,0.4c-0.3,0.3-0.5,0.9-0.5,1.9
	v45.6h-7L91.5,8.8c-0.2-0.6-0.5-1-0.9-1.2c-0.4-0.2-0.9-0.2-1.7-0.2h-7.2c-0.7,0-1.3,0.1-1.7,0.2c-0.4,0.2-0.7,0.6-0.9,1.2
	L63.6,55.3h-8c1-2.1,1.5-4.6,1.5-7.4v-1c0-3.8-1-6.9-3-9.6c-2-2.6-5-4.5-9-5.8l-8.4-2.6c-1.5-0.5-2.8-1-3.8-1.5
	c-1-0.5-1.9-1.1-2.5-1.7c-0.6-0.6-1.1-1.3-1.3-2.1c-0.3-0.8-0.4-1.7-0.4-2.8c0-5.2,2.9-7,8.7-7c5.7,0,8.8,1.3,9.3,5.6
	c0.1,0.8,0.3,1.3,0.6,1.6c0.3,0.3,1,0.4,2,0.4h4.5c1,0,1.7-0.1,2-0.4c0.3-0.3,0.5-0.9,0.5-1.7c0-3.6-1.1-5.8-3.3-8.3
	c-3.2-3.5-8.2-5.3-14.8-5.3c-6.2,0-11,1.5-14.3,4.4c-3.4,2.9-5,6.1-5,11.4v0.7c0,3.5,1,6.5,3.1,9c2.1,2.5,5.1,4.4,9,5.6l8.4,2.6
	c2.7,0.8,4.7,1.9,5.9,3.3c1.2,1.3,1.8,3.1,1.8,5.2c0,2.7-0.7,4.6-2.2,5.8c-1.5,1.2-3.9,1.8-7.2,1.8c-2.9,0-5.2-0.6-6.7-1.7
	c-1.6-1.1-2.6-2.8-3.1-5.1c-0.2-0.8-0.4-1.3-0.8-1.6c-0.3-0.3-1-0.4-1.9-0.4h-4.4c-1,0-1.7,0.1-2,0.4C18.2,47.6,18,48.1,18,49
	c0,1.9,0.4,3.6,1.1,5.3c0.7,1.7,1.7,3.2,3.1,4.6c3.3,3.3,8.6,5,15.8,5c0.7,0,1.4,0,2.1-0.1H63c0,0,0,0,0,0h5.2c1,0,1.7-0.1,2-0.4
	c0.3-0.3,0.6-0.9,0.9-1.8L85,18l14.1,43.6c0.3,0.9,0.6,1.6,0.9,1.9c0.3,0.3,0.9,0.4,1.9,0.4h31.3c6.3,0,11.2-1.2,14.6-3.7
	c3.4-2.4,5-6.6,5-12.5v-1.3c0-1.5-0.2-3-0.6-4.3h7.3v19.4c0,0.9,0.2,1.5,0.5,1.8c0.3,0.3,1,0.5,2.1,0.5h4.4c1.1,0,1.8-0.2,2.1-0.5
	c0.3-0.3,0.5-0.9,0.5-1.8V42.1h8.9l10.5,19.4c0.5,1,1,1.6,1.4,1.9c0.4,0.3,1,0.4,2,0.4h19.9c1,0,1.7-0.2,2-0.4
	c0.4-0.3,0.5-0.9,0.5-1.9V15.9h10.9v45.6c0,1,0.2,1.6,0.5,1.9c0.3,0.3,1,0.4,2,0.4h4.4c1,0,1.7-0.2,2-0.4c0.3-0.3,0.5-0.9,0.5-1.9
	V25.7l19,36c0.5,1,1,1.6,1.5,1.9c0.5,0.2,1.2,0.4,2.2,0.4h19.3c1,0,1.7-0.1,1.9-0.4c0.3-0.3,0.6-0.9,0.9-1.8L293.3,18l14.1,43.6
	c0.3,0.9,0.6,1.6,0.9,1.9c0.3,0.3,0.9,0.4,1.9,0.4h9.4v0h6.2c0.9,0,1.6-0.2,1.9-0.5c0.3-0.3,0.4-0.9,0.4-1.8v-4
	C328.2,56.7,328.1,56.1,327.8,55.7z M123.6,15.6h10c3,0,5.1,0.6,6.5,1.7c1.4,1.1,2.1,2.9,2.1,5.2v1c0,2.4-0.6,4.1-1.9,5.2
	c-1.3,1.1-3.3,1.6-6,1.6h-10.6V15.6z M142.8,47.6c0,2.9-0.8,4.9-2.4,6.1c-1.6,1.2-3.9,1.8-6.8,1.8h-10V38.2h11.2
	c2.6,0,4.6,0.7,6,2.1c1.4,1.4,2.1,3.3,2.1,5.8V47.6z M187.5,25.3c0,3-0.6,5.1-1.9,6.4c-1.3,1.2-3.4,1.9-6.5,1.9h-9.9V15.6h9.9
	c3.1,0,5.3,0.6,6.5,1.9c1.2,1.3,1.9,3.5,1.9,6.7V25.3z"/>
<path class="st1" d="M361.6,74c-0.3-0.3-1-0.4-2-0.4h-4.4c-1,0-1.7,0.1-2,0.4c-0.4,0.3-0.5,0.9-0.5,1.9v35.9l-19-36
	c-0.5-1-1-1.6-1.5-1.9c-0.5-0.2-1.2-0.3-2.2-0.3h-4.6c-1,0-1.7,0.1-2,0.4c-0.3,0.3-0.5,0.9-0.5,1.9v45.6h-7.5L299.8,75
	c-0.2-0.6-0.5-1-0.9-1.2c-0.4-0.2-0.9-0.2-1.7-0.2h-7.1c-0.7,0-1.3,0.1-1.7,0.2c-0.4,0.2-0.7,0.6-0.9,1.2l-15.7,46.5h-7.5V75.8
	c0-1-0.2-1.6-0.5-1.9c-0.3-0.3-1-0.4-2-0.4h-4.6c-1,0-1.8,0.1-2.2,0.4c-0.4,0.3-0.9,0.9-1.3,1.9l-13,27.9l-12.9-27.9
	c-0.5-1-0.9-1.6-1.3-1.9c-0.4-0.3-1.2-0.4-2.2-0.4h-4.6c-1,0-1.7,0.1-2,0.4c-0.3,0.3-0.5,0.9-0.5,1.9v45.6h-33v-16.7h15.1
	c1,0,1.6-0.2,1.9-0.5c0.3-0.4,0.4-1,0.4-2v-3.5c0-1-0.1-1.7-0.4-2c-0.3-0.3-0.9-0.5-1.9-0.5H184v-14h22.5c1,0,1.6-0.2,1.9-0.5
	c0.3-0.3,0.4-1,0.4-2v-3.5c0-1-0.1-1.7-0.4-2c-0.3-0.3-0.9-0.5-1.9-0.5h-29.6c-1,0-1.7,0.1-2,0.4c-0.4,0.3-0.5,0.9-0.5,1.9v20.3
	h-7.9c0-3-0.2-5.3-0.5-7c-0.3-1.8-0.8-3.4-1.4-4.8c-0.6-1.5-1.5-2.9-2.5-4.2c-1.1-1.3-2.4-2.4-3.9-3.4c-1.6-1-3.4-1.8-5.4-2.3
	c-2-0.6-4.3-0.9-6.9-0.9h-33.8c-1,0-1.7,0.1-2,0.4c-0.3,0.3-0.5,0.9-0.5,1.9v45.6h-33v-16.7h15.1c1,0,1.6-0.2,1.9-0.5
	c0.3-0.4,0.4-1,0.4-2v-3.5c0-1-0.1-1.7-0.4-2c-0.3-0.3-0.9-0.5-1.9-0.5H76.4v-14h22.5c1,0,1.6-0.2,1.9-0.5c0.3-0.3,0.4-1,0.4-2v-3.5
	c0-1-0.2-1.7-0.4-2c-0.3-0.3-0.9-0.5-1.9-0.5H69.3c-1,0-1.7,0.1-2,0.4c-0.3,0.3-0.5,0.9-0.5,1.9v20.3h-7.9V75.8c0-1-0.2-1.6-0.5-1.9
	c-0.4-0.3-1-0.4-2-0.4h-4.6c-1,0-1.7,0.1-2,0.4c-0.3,0.3-0.5,0.9-0.5,1.9v20.3H27.7V75.8c0-1-0.2-1.6-0.5-1.9c-0.4-0.3-1-0.4-2-0.4
	h-4.6c-1,0-1.7,0.1-2,0.4c-0.3,0.3-0.5,0.9-0.5,1.9v51.9c0,1,0.2,1.6,0.5,1.9c0.4,0.3,1,0.4,2,0.4h4.6c1,0,1.7-0.1,2-0.4
	c0.3-0.3,0.5-0.9,0.5-1.9v-23h21.4v23c0,1,0.2,1.6,0.5,1.9c0.4,0.3,1,0.4,2,0.4h4.6c1,0,1.7-0.1,2-0.4c0.3-0.3,0.5-0.9,0.5-1.9v-23
	h7.9v23c0,1,0.2,1.6,0.5,1.9c0.3,0.3,1,0.4,2,0.4h47.3c1,0,1.7-0.1,2-0.4c0.3-0.3,0.5-0.9,0.5-1.9V82.1h7.9v45.6
	c0,1,0.2,1.6,0.5,1.9c0.3,0.3,1,0.4,2,0.4h17.4c2.4,0,4.6-0.3,6.5-0.8c1.9-0.6,3.6-1.3,5-2.3c1.4-1,2.6-2.1,3.6-3.4
	c1-1.3,1.8-2.7,2.4-4.1c0.6-1.4,1-2.9,1.4-4.7c0.3-1.8,0.5-4.1,0.5-7.1v-2.9h7.9v23c0,1,0.2,1.6,0.5,1.9c0.3,0.3,1,0.4,2,0.4h47
	c1,0,1.7-0.1,2-0.4c0.3-0.3,0.5-0.9,0.5-1.9V92.3l8.7,19c0.4,1,0.8,1.6,1.2,1.9c0.3,0.3,1,0.4,2.1,0.4h4.5c1.1,0,1.8-0.1,2.1-0.4
	c0.3-0.3,0.7-0.9,1.2-1.9l8.7-19v35.5c0,1,0.2,1.6,0.5,1.9c0.3,0.3,1,0.4,2,0.4h19.1c1,0,1.7-0.1,1.9-0.4c0.3-0.2,0.6-0.9,0.9-1.8
	l13.9-43.7l14.1,43.6c0.3,1,0.6,1.6,0.9,1.9c0.3,0.3,0.9,0.4,1.9,0.4h19.5c1,0,1.7-0.1,2-0.4c0.3-0.3,0.5-0.9,0.5-1.9V91.9l19,36
	c0.5,1,1,1.6,1.5,1.9s1.2,0.4,2.2,0.4h4.6c1,0,1.7-0.1,2-0.4c0.4-0.3,0.5-0.9,0.5-1.9V75.8C362.1,74.9,361.9,74.2,361.6,74z
	 M156.5,107.7c0,2.6-0.2,4.9-0.7,6.6c-0.5,1.8-1.2,3.2-2.1,4.2c-0.9,1.1-2.1,1.8-3.4,2.3c-1.3,0.5-2.9,0.7-4.7,0.7h-8.9V82.1h8.9
	c1.7,0,3.3,0.2,4.6,0.7c1.4,0.5,2.5,1.2,3.4,2.3c0.9,1.1,1.6,2.5,2.1,4.2c0.5,1.8,0.8,4,0.8,6.6V107.7z"/>
</svg>
